<svg id="Capa_1" data-name="Capa 1" xmlns="http://www.w3.org/2000/svg" viewBox="0 0 493.5 334.1"><defs><style>.cls-1{fill:#f5f5f5;}.cls-2{fill:#ebebeb;}.cls-3{fill:#e0e0e0;}.cls-10,.cls-4{fill:#263238;}.cls-5{fill:#455a64;}.cls-6{fill:#fff;}.cls-7{fill:#ff1713;}.cls-8{fill:#931616;}.cls-10,.cls-9{opacity:0.6;}.cls-10{isolation:isolate;}.cls-11{fill:#ffbe9d;}.cls-12{fill:#eb996e;}.cls-13{fill:#fafafa;}</style></defs><title>trading3</title><path class="cls-1" d="M445.55,69.69a17.66,17.66,0,1,0-14.94,20A17.63,17.63,0,0,0,445.55,69.69Z" transform="translate(-29.25 -22.32)"/><path class="cls-2" d="M441.39,70.3A13.45,13.45,0,1,0,430,85.52,13.43,13.43,0,0,0,441.39,70.3Z" transform="translate(-29.25 -22.32)"/><path class="cls-3" d="M441.33,69.87a7.75,7.75,0,0,1-.58-1.55,14.33,14.33,0,0,0-2.13-3.86,13.37,13.37,0,0,0-5.05-4,14.15,14.15,0,0,0-1.76-.65,13.07,13.07,0,0,0-1.9-.4,12.25,12.25,0,0,0-2-.12,13.27,13.27,0,0,0-4.07.72,13.65,13.65,0,0,0-3.5,1.84,14.24,14.24,0,0,0-1.43,1.21,13.42,13.42,0,0,0-3.37,5.48,14.15,14.15,0,0,0-.67,4.36,6.9,6.9,0,0,1,0,1.65,3.79,3.79,0,0,1-.38-1.63,12.39,12.39,0,0,1,.37-4.58,13.19,13.19,0,0,1,1.2-3,13.52,13.52,0,0,1,2.2-3,12.93,12.93,0,0,1,1.51-1.33A11.8,11.8,0,0,1,421.49,60a13.2,13.2,0,0,1,2-.88,13.05,13.05,0,0,1,2.17-.57,15.31,15.31,0,0,1,2.23-.22,14.21,14.21,0,0,1,2.17.15,12.46,12.46,0,0,1,2.05.46,14,14,0,0,1,1.87.73A13.58,13.58,0,0,1,439.21,64a12.29,12.29,0,0,1,1.92,4.17A3.81,3.81,0,0,1,441.33,69.87Z" transform="translate(-29.25 -22.32)"/><path class="cls-3" d="M430.74,80l.37,2.31-2.06.33-.37-2.25a9.93,9.93,0,0,1-5.41-.83l.74-2.7a8.36,8.36,0,0,0,4.24.82l-.55-3.45c-2.38-.19-5.07-.54-5.54-3.5-.35-2.19.94-4.32,4.14-5.22l-.37-2.29,2.07-.33.36,2.25a9.42,9.42,0,0,1,4.4.59l-.63,2.71a8.41,8.41,0,0,0-3.33-.57l.56,3.51c2.38.17,5,.53,5.49,3.44C435.2,76.92,433.92,79,430.74,80Zm-3.53-8.81-.47-2.93c-1.05.42-1.39,1.09-1.28,1.77S426.26,71,427.21,71.14Zm4.36,4.42c-.12-.73-.78-1-1.72-1.19l.45,2.85C431.3,76.83,431.67,76.22,431.57,75.56Z" transform="translate(-29.25 -22.32)"/><path class="cls-1" d="M390.52,72.82a30.65,30.65,0,1,0-25.93,34.67A30.61,30.61,0,0,0,390.52,72.82Z" transform="translate(-29.25 -22.32)"/><path class="cls-2" d="M383.31,73.87a23.36,23.36,0,1,0-19.77,26.42A23.32,23.32,0,0,0,383.31,73.87Z" transform="translate(-29.25 -22.32)"/><path class="cls-3" d="M383.2,73.14a13.9,13.9,0,0,1-1-2.7A24,24,0,0,0,374.82,60a23.46,23.46,0,0,0-5.11-3.15,21.14,21.14,0,0,0-3-1.13,20.9,20.9,0,0,0-3.31-.7,22.34,22.34,0,0,0-3.49-.21,25.81,25.81,0,0,0-3.59.35,24.81,24.81,0,0,0-3.49.91,23,23,0,0,0-3.21,1.39,22.32,22.32,0,0,0-2.86,1.8,21.24,21.24,0,0,0-2.47,2.11,23,23,0,0,0-3.71,4.72,23.24,23.24,0,0,0-2.15,4.79,24.72,24.72,0,0,0-1.16,7.56,13.52,13.52,0,0,1,0,2.87,6.91,6.91,0,0,1-.67-2.84,21.8,21.8,0,0,1,.64-7.95,24.42,24.42,0,0,1,2.08-5.17,23.91,23.91,0,0,1,3.83-5.14,21.53,21.53,0,0,1,2.61-2.31,22.91,22.91,0,0,1,3.06-2,24.52,24.52,0,0,1,3.46-1.53,26,26,0,0,1,3.76-1,25.56,25.56,0,0,1,3.87-.36,23.5,23.5,0,0,1,3.77.24,22.76,22.76,0,0,1,3.56.81,23.68,23.68,0,0,1,3.24,1.26,23.38,23.38,0,0,1,9.1,7.66,21.51,21.51,0,0,1,3.34,7.24A7,7,0,0,1,383.2,73.14Z" transform="translate(-29.25 -22.32)"/><path class="cls-3" d="M364.81,90.63l.64,4-3.58.57-.63-3.91c-3.58.35-7.17-.21-9.39-1.44l1.27-4.69a14.74,14.74,0,0,0,7.37,1.43l-1-6c-4.14-.33-8.8-1-9.62-6.08-.61-3.8,1.63-7.51,7.2-9.06l-.64-4,3.59-.58.62,3.92a16.4,16.4,0,0,1,7.64,1l-1.09,4.7a14.88,14.88,0,0,0-5.79-1l1,6.1c4.13.29,8.72.92,9.53,6C372.54,85.38,370.33,89,364.81,90.63Zm-6.12-15.29-.82-5.09c-1.83.74-2.42,1.9-2.23,3.08S357,75.1,358.69,75.34ZM366.24,83c-.2-1.25-1.35-1.77-3-2.06l.79,5C365.79,85.21,366.42,84.15,366.24,83Z" transform="translate(-29.25 -22.32)"/><path class="cls-1" d="M119.5,177.2a17.66,17.66,0,1,0-14.94,20A17.64,17.64,0,0,0,119.5,177.2Z" transform="translate(-29.25 -22.32)"/><path class="cls-2" d="M115.34,177.81A13.46,13.46,0,1,0,104,193,13.44,13.44,0,0,0,115.34,177.81Z" transform="translate(-29.25 -22.32)"/><path class="cls-3" d="M115.28,177.39a8.46,8.46,0,0,1-.59-1.55,13.62,13.62,0,0,0-4.24-6,13.4,13.4,0,0,0-2.94-1.82,12.13,12.13,0,0,0-1.75-.65,12,12,0,0,0-1.91-.4,12.13,12.13,0,0,0-2-.12,13.3,13.3,0,0,0-2.07.2,13.47,13.47,0,0,0-2,.52,13.94,13.94,0,0,0-1.85.8,13.15,13.15,0,0,0-1.65,1,12.91,12.91,0,0,0-1.42,1.21,13.31,13.31,0,0,0-2.14,2.72,13.83,13.83,0,0,0-1.91,7.12,8.19,8.19,0,0,1,0,1.65,3.93,3.93,0,0,1-.39-1.63,12.39,12.39,0,0,1,.37-4.58,13.67,13.67,0,0,1,1.2-3,13.87,13.87,0,0,1,2.21-3,12.93,12.93,0,0,1,1.5-1.33,13.21,13.21,0,0,1,1.76-1.13,13.7,13.7,0,0,1,2-.89,15.72,15.72,0,0,1,2.17-.57,17,17,0,0,1,2.23-.21A14.26,14.26,0,0,1,104,166a13.64,13.64,0,0,1,3.91,1.19,13.64,13.64,0,0,1,3.09,2,13.38,13.38,0,0,1,2.15,2.39,12.26,12.26,0,0,1,1.93,4.17A4,4,0,0,1,115.28,177.39Z" transform="translate(-29.25 -22.32)"/><path class="cls-3" d="M104.69,187.47l.37,2.31-2.07.33-.36-2.25a9.93,9.93,0,0,1-5.41-.83l.73-2.7a8.52,8.52,0,0,0,4.25.82l-.56-3.45c-2.38-.19-5.06-.55-5.54-3.5-.35-2.19.94-4.33,4.15-5.22l-.37-2.3,2.07-.33.36,2.26a9.31,9.31,0,0,1,4.4.59l-.63,2.7a8.59,8.59,0,0,0-3.33-.57l.56,3.52c2.38.17,5,.53,5.49,3.44C109.14,184.44,107.87,186.55,104.69,187.47Zm-3.53-8.81-.47-2.93c-1.06.42-1.39,1.09-1.29,1.77S100.2,178.52,101.16,178.66Zm4.35,4.41c-.12-.72-.78-1-1.72-1.19l.46,2.86C105.25,184.35,105.62,183.74,105.51,183.07Z" transform="translate(-29.25 -22.32)"/><path class="cls-1" d="M89.24,138.33a11.49,11.49,0,1,0-15.82-3.6A11.49,11.49,0,0,0,89.24,138.33Z" transform="translate(-29.25 -22.32)"/><path class="cls-2" d="M87.78,136a8.76,8.76,0,1,0-12-2.75A8.75,8.75,0,0,0,87.78,136Z" transform="translate(-29.25 -22.32)"/><path class="cls-3" d="M88,135.86s.27-.28.76-.75a9.05,9.05,0,0,0,1.73-2.29,8,8,0,0,0,.73-1.83,9.16,9.16,0,0,0,.31-2.23,8.38,8.38,0,0,0-.08-1.21,9.12,9.12,0,0,0-.26-1.24,8.73,8.73,0,0,0-2-3.46,9,9,0,0,0-1-.89,8.8,8.8,0,0,0-1-.71,10,10,0,0,0-1.1-.52,8.72,8.72,0,0,0-2.18-.55,9,9,0,0,0-4.73.74c-.63.28-1,.48-1,.43s.26-.3.87-.66a8.09,8.09,0,0,1,2.82-1,8.82,8.82,0,0,1,2.08-.07,8.67,8.67,0,0,1,2.35.52,8.47,8.47,0,0,1,1.19.55,8.22,8.22,0,0,1,1.14.74,9.38,9.38,0,0,1,1,1,9.88,9.88,0,0,1,.91,1.14,9,9,0,0,1,.72,1.27,10.21,10.21,0,0,1,.49,1.33,8.12,8.12,0,0,1,.26,1.34,7.23,7.23,0,0,1,.06,1.31,9.26,9.26,0,0,1-.38,2.37,9.64,9.64,0,0,1-.85,1.91,8.14,8.14,0,0,1-2,2.24C88.4,135.73,88,135.9,88,135.86Z" transform="translate(-29.25 -22.32)"/><path class="cls-3" d="M79.23,132.23l-1.28.83-.74-1.14,1.24-.81a6.47,6.47,0,0,1-.94-3.44l1.8-.28a5.6,5.6,0,0,0,.63,2.75l1.91-1.24c-.52-1.47-1-3.16.62-4.22,1.21-.79,2.82-.59,4.2,1.08l1.26-.82.75,1.14-1.25.81a6.14,6.14,0,0,1,.81,2.77l-1.77.34a5.44,5.44,0,0,0-.55-2.13L84,129.13c.53,1.46,1,3.13-.59,4.18C82.2,134.08,80.61,133.88,79.23,132.23Zm4.3-4.43,1.62-1a1.08,1.08,0,0,0-1.4-.3C83.36,126.71,83.36,127.2,83.53,127.8Zm-1.47,3.76c.4-.26.4-.74.25-1.34l-1.58,1C81.23,131.74,81.69,131.79,82.06,131.56Z" transform="translate(-29.25 -22.32)"/><path class="cls-1" d="M397.42,43.53a11.49,11.49,0,1,0-15.81-3.6A11.48,11.48,0,0,0,397.42,43.53Z" transform="translate(-29.25 -22.32)"/><path class="cls-2" d="M396,41.22a8.76,8.76,0,1,0-12.06-2.74A8.76,8.76,0,0,0,396,41.22Z" transform="translate(-29.25 -22.32)"/><path class="cls-3" d="M396.19,41.07s.27-.28.77-.76A9.67,9.67,0,0,0,398.69,38a9.56,9.56,0,0,0,.73-1.83,8.83,8.83,0,0,0,.3-2.23,8.42,8.42,0,0,0-.08-1.22,8.36,8.36,0,0,0-.72-2.46,9.9,9.9,0,0,0-.67-1.18,9.78,9.78,0,0,0-.84-1.06,9.07,9.07,0,0,0-2-1.59,8.52,8.52,0,0,0-1.1-.53,9.06,9.06,0,0,0-2.18-.55,8.64,8.64,0,0,0-2,0,9.07,9.07,0,0,0-2.76.75,5.56,5.56,0,0,1-1,.43s.26-.3.87-.66a7.77,7.77,0,0,1,2.82-1,8.86,8.86,0,0,1,2.09-.08,9,9,0,0,1,2.34.53,8.4,8.4,0,0,1,1.19.54,9,9,0,0,1,1.15.75,8.42,8.42,0,0,1,1,1A8.64,8.64,0,0,1,399.52,30a8.18,8.18,0,0,1,.49,1.33,8.84,8.84,0,0,1,.27,1.34,9.58,9.58,0,0,1,.06,1.3,8.84,8.84,0,0,1-.39,2.37,8.61,8.61,0,0,1-.85,1.91,8.21,8.21,0,0,1-2,2.25A2.62,2.62,0,0,1,396.19,41.07Z" transform="translate(-29.25 -22.32)"/><path class="cls-3" d="M387.4,37.43l-1.28.84-.74-1.15,1.24-.81a6.42,6.42,0,0,1-.94-3.43l1.81-.28a5.33,5.33,0,0,0,.63,2.74L390,34.1c-.51-1.47-1-3.16.62-4.22,1.21-.79,2.82-.58,4.2,1.09l1.27-.83.74,1.14-1.25.81a6.16,6.16,0,0,1,.82,2.77l-1.78.35a5.71,5.71,0,0,0-.54-2.14l-1.94,1.26c.52,1.46,1,3.13-.6,4.18C390.37,39.28,388.78,39.08,387.4,37.43ZM391.7,33,393.32,32c-.53-.51-1-.54-1.39-.29S391.53,32.4,391.7,33Zm-1.47,3.75c.4-.26.4-.73.25-1.33l-1.58,1C389.4,36.94,389.86,37,390.23,36.76Z" transform="translate(-29.25 -22.32)"/><path class="cls-4" d="M522.75,346.18c0,.11-110.48.2-246.74.2s-246.76-.09-246.76-.2S139.71,346,276,346,522.75,346.08,522.75,346.18Z" transform="translate(-29.25 -22.32)"/><path class="cls-4" d="M492.38,99.1H212.18a8.74,8.74,0,0,0-8.75,8.74V305.76a8.75,8.75,0,0,0,8.75,8.75H319.72s6.84,21.15-14.37,32.1H405.91s-23.94-8.21-17.79-32.1H492.38a8.75,8.75,0,0,0,8.75-8.75V107.84A8.74,8.74,0,0,0,492.38,99.1Z" transform="translate(-29.25 -22.32)"/><path class="cls-5" d="M356,293.7c3.81,5.44-2.15,11.41-7.6,7.6a2.1,2.1,0,0,1-.47-.47c-3.8-5.45,2.16-11.41,7.6-7.6A1.62,1.62,0,0,1,356,293.7Z" transform="translate(-29.25 -22.32)"/><path class="cls-6" d="M496.31,278.3H208.25V109.86a7.14,7.14,0,0,1,7.14-7.14H489.17a7.14,7.14,0,0,1,7.13,7.14V278.3Z" transform="translate(-29.25 -22.32)"/><path class="cls-7" d="M242.11,142.36h-9.45V247.87h9.45Z" transform="translate(-29.25 -22.32)"/><path class="cls-7" d="M260.35,178.2H250.9v69.67h9.45Z" transform="translate(-29.25 -22.32)"/><path class="cls-7" d="M278.58,155.48h-9.44v92.93h9.44Z" transform="translate(-29.25 -22.32)"/><path class="cls-7" d="M296.82,146.43h-9.44V247.87h9.44Z" transform="translate(-29.25 -22.32)"/><path class="cls-7" d="M315.06,180.34h-9.45v67.53h9.45Z" transform="translate(-29.25 -22.32)"/><path class="cls-7" d="M333.3,193.59h-9.44v54.28h9.44Z" transform="translate(-29.25 -22.32)"/><path class="cls-7" d="M351.54,153.19h-9.45v94.68h9.45Z" transform="translate(-29.25 -22.32)"/><path class="cls-7" d="M369.78,170.26h-9.45v77.61h9.45Z" transform="translate(-29.25 -22.32)"/><path class="cls-7" d="M388,156.62h-9.45v91.25H388Z" transform="translate(-29.25 -22.32)"/><path class="cls-7" d="M406.26,185.7h-9.45v62.17h9.45Z" transform="translate(-29.25 -22.32)"/><path class="cls-7" d="M442.64,153.19h-9.45v94.68h9.45Z" transform="translate(-29.25 -22.32)"/><path class="cls-7" d="M481.38,214.11h-9.45V246.5h9.45Z" transform="translate(-29.25 -22.32)"/><path class="cls-7" d="M462.49,185.7h-9.44v62.17h9.44Z" transform="translate(-29.25 -22.32)"/><path class="cls-7" d="M424.5,173.87h-9.45v74h9.45Z" transform="translate(-29.25 -22.32)"/><path class="cls-4" d="M484,155.81a5.27,5.27,0,0,1-.83-.13l-2.4-.5a37.73,37.73,0,0,0-3.93-.62,49.14,49.14,0,0,0-5.41-.45,62.63,62.63,0,0,0-14.79,1.27,65.2,65.2,0,0,0-18.35,6.94,75.12,75.12,0,0,0-18.58,14.8c-5.79,6.34-10.67,14.18-15.66,22.48s-10.16,17.2-17.59,24.86a45.72,45.72,0,0,1-13,9.7,27,27,0,0,1-8,2.44,25.67,25.67,0,0,1-8.47-.28,34.56,34.56,0,0,1-14.76-7.74,69.05,69.05,0,0,1-10.93-11.93c-6.34-8.54-10.84-17.74-15.67-26.12s-9.65-16.28-15.65-22.42a42.08,42.08,0,0,0-9.68-7.61,40.57,40.57,0,0,0-5.23-2.54,42.33,42.33,0,0,0-5.33-1.58,38.75,38.75,0,0,0-19.4.54,43.79,43.79,0,0,0-13.31,6.4,49,49,0,0,0-7,6.27l-1.62,1.84a4,4,0,0,1-.59.6,6.05,6.05,0,0,1,.5-.67l1.56-1.91a45.83,45.83,0,0,1,6.9-6.46,43.79,43.79,0,0,1,13.4-6.64,39.28,39.28,0,0,1,19.72-.7c7.27,1.45,14.67,5.62,20.71,11.85s11.08,14.13,15.87,22.54,9.38,17.57,15.66,26A68.15,68.15,0,0,0,343,227.77a33.49,33.49,0,0,0,14.3,7.51,24.58,24.58,0,0,0,8.11.28,26.47,26.47,0,0,0,7.69-2.35,45.1,45.1,0,0,0,12.67-9.47c7.32-7.53,12.44-16.41,17.5-24.65s10-16.17,15.85-22.57A75.33,75.33,0,0,1,438,161.67a65.08,65.08,0,0,1,18.59-6.87,61.21,61.21,0,0,1,14.93-1.1,45.29,45.29,0,0,1,5.43.55,34.54,34.54,0,0,1,3.94.73l2.38.59A4,4,0,0,1,484,155.81Z" transform="translate(-29.25 -22.32)"/><path class="cls-4" d="M222.26,255.22c-.22,0-.39-30.09-.39-67.19s.17-67.2.39-67.2.39,30.08.39,67.2S222.47,255.22,222.26,255.22Z" transform="translate(-29.25 -22.32)"/><path class="cls-4" d="M481.38,255.22c0,.21-56.69.39-126.59.39s-126.61-.18-126.61-.39,56.68-.39,126.61-.39S481.38,255,481.38,255.22Z" transform="translate(-29.25 -22.32)"/><path class="cls-4" d="M239.12,263.91c3.87,0,7-.17,7-.39s-3.14-.38-7-.38-7,.17-7,.38S235.25,263.91,239.12,263.91Z" transform="translate(-29.25 -22.32)"/><path class="cls-4" d="M261,264.34c4.63,0,8.38-.18,8.38-.39s-3.75-.39-8.38-.39-8.38.17-8.38.39S256.38,264.34,261,264.34Z" transform="translate(-29.25 -22.32)"/><path class="cls-4" d="M280.85,264.34c4.63,0,8.38-.18,8.38-.39s-3.75-.39-8.38-.39-8.38.17-8.38.39S276.22,264.34,280.85,264.34Z" transform="translate(-29.25 -22.32)"/><path class="cls-4" d="M300.68,264.34c4.63,0,8.38-.18,8.38-.39s-3.75-.39-8.38-.39-8.38.17-8.38.39S296.06,264.34,300.68,264.34Z" transform="translate(-29.25 -22.32)"/><path class="cls-4" d="M320.52,264.34c4.63,0,8.38-.18,8.38-.39s-3.75-.39-8.38-.39-8.38.17-8.38.39S315.89,264.34,320.52,264.34Z" transform="translate(-29.25 -22.32)"/><path class="cls-4" d="M340.36,264.34c4.62,0,8.37-.18,8.37-.39s-3.75-.39-8.37-.39-8.38.17-8.38.39S335.73,264.34,340.36,264.34Z" transform="translate(-29.25 -22.32)"/><path class="cls-4" d="M360.19,264.34c4.63,0,8.38-.18,8.38-.39s-3.75-.39-8.38-.39-8.38.17-8.38.39S355.57,264.34,360.19,264.34Z" transform="translate(-29.25 -22.32)"/><path class="cls-4" d="M380,264.34c4.63,0,8.38-.18,8.38-.39s-3.75-.39-8.38-.39-8.38.17-8.38.39S375.4,264.34,380,264.34Z" transform="translate(-29.25 -22.32)"/><path class="cls-4" d="M399.86,264.34c4.63,0,8.38-.18,8.38-.39s-3.75-.39-8.38-.39-8.37.17-8.37.39S395.24,264.34,399.86,264.34Z" transform="translate(-29.25 -22.32)"/><path class="cls-4" d="M419.7,264.34c4.63,0,8.38-.18,8.38-.39s-3.75-.39-8.38-.39-8.38.17-8.38.39S415.07,264.34,419.7,264.34Z" transform="translate(-29.25 -22.32)"/><path class="cls-4" d="M438.15,264.34c4.63,0,8.38-.17,8.38-.39s-3.75-.38-8.38-.38-8.38.17-8.38.38S433.52,264.34,438.15,264.34Z" transform="translate(-29.25 -22.32)"/><path class="cls-4" d="M456.6,264.35c4.63,0,8.38-.18,8.38-.39s-3.75-.39-8.38-.39-8.38.18-8.38.39S452,264.35,456.6,264.35Z" transform="translate(-29.25 -22.32)"/><path class="cls-4" d="M475.05,264.36c4.63,0,8.38-.18,8.38-.39s-3.75-.39-8.38-.39-8.38.17-8.38.39S470.42,264.36,475.05,264.36Z" transform="translate(-29.25 -22.32)"/><path class="cls-4" d="M318.69,191.48c0-.16,1.16.25,1.53,1.83a3.84,3.84,0,0,1-.3,2.72,2.37,2.37,0,0,1-1.37,1.17,2.56,2.56,0,0,1-1.92-.23,3.21,3.21,0,0,1-1.64-3,3.39,3.39,0,0,1,1.31-2.44,2.2,2.2,0,0,1,1.81-.44c.44.13.59.34.56.39s-1-.29-1.89.63A2.77,2.77,0,0,0,316,194a2.33,2.33,0,0,0,1.17,2,1.39,1.39,0,0,0,1.95-.5,3.34,3.34,0,0,0,.4-2.1A4.8,4.8,0,0,0,318.69,191.48Z" transform="translate(-29.25 -22.32)"/><path class="cls-4" d="M443,156.8c0-.06.3-.16.82,0a3.19,3.19,0,0,1,1.69,1.46,4.17,4.17,0,0,1,.41,3.31,3.48,3.48,0,0,1-3.23,2.58,2.78,2.78,0,0,1-2.06-1.07,4.57,4.57,0,0,1-.87-1.84,4.23,4.23,0,0,1,.54-3.28c1.16-1.65,2.6-1.56,2.54-1.44s-1.13.38-1.9,1.82a3.61,3.61,0,0,0-.23,2.67c.25,1,1,2.08,2,2.09a2.6,2.6,0,0,0,2.28-1.83,3.59,3.59,0,0,0-.16-2.66A3.79,3.79,0,0,0,443,156.8Z" transform="translate(-29.25 -22.32)"/><path class="cls-6" d="M335.83,49.17H146.23V196.74h189.6Z" transform="translate(-29.25 -22.32)"/><path class="cls-4" d="M335.83,196.74c0-1.48-.07-58.52-.18-147.57l.18.18-189.58,0h0l.22-.22c0,53.19,0,103.5,0,147.57l-.19-.2,189.6.2-189.6.19H146v-.19c0-44.07,0-94.38,0-147.57V49h.23l189.58,0H336v.17C335.9,138.22,335.83,195.26,335.83,196.74Z" transform="translate(-29.25 -22.32)"/><path class="cls-4" d="M186.17,68.56H155.48v1.71h30.69Z" transform="translate(-29.25 -22.32)"/><path class="cls-4" d="M170.65,72.56H155.48v1.7h15.17Z" transform="translate(-29.25 -22.32)"/><path class="cls-4" d="M178.54,175.53H173v1.6h5.56Z" transform="translate(-29.25 -22.32)"/><path class="cls-4" d="M192.67,184.1h-7.11v1.6h7.11Z" transform="translate(-29.25 -22.32)"/><path class="cls-4" d="M217.42,184.1h-7.11v1.6h7.11Z" transform="translate(-29.25 -22.32)"/><path class="cls-4" d="M242.17,184.1h-7.11v1.6h7.11Z" transform="translate(-29.25 -22.32)"/><path class="cls-4" d="M266.92,184.1h-7.11v1.6h7.11Z" transform="translate(-29.25 -22.32)"/><path class="cls-4" d="M291.67,184.1h-7.11v1.6h7.11Z" transform="translate(-29.25 -22.32)"/><path class="cls-4" d="M316.42,184.1h-7.11v1.6h7.11Z" transform="translate(-29.25 -22.32)"/><path class="cls-4" d="M178.54,154.13H173v1.61h5.56Z" transform="translate(-29.25 -22.32)"/><path class="cls-4" d="M178.54,113.86H173v1.6h5.56Z" transform="translate(-29.25 -22.32)"/><path class="cls-4" d="M178.54,93.62H173v1.6h5.56Z" transform="translate(-29.25 -22.32)"/><path class="cls-4" d="M178.82,134h-5.56v1.6h5.56Z" transform="translate(-29.25 -22.32)"/><path class="cls-4" d="M316.22,177.13s-.2,0-.59,0l-1.75,0-6.73,0-24.74.06-81.63.06H181.25v-.19c0-27.3.05-51.32.06-68.53,0-8.59.05-15.48.06-20.24,0-2.36,0-4.19,0-5.45,0-.61,0-1.08,0-1.41s0-.48,0-.48,0,.17,0,.48,0,.8,0,1.41c0,1.26,0,3.09,0,5.45,0,4.76,0,11.65.06,20.24,0,17.21,0,41.23.07,68.53l-.19-.19h19.34l81.63.06,24.74.06,6.73,0,1.75,0Z" transform="translate(-29.25 -22.32)"/><path class="cls-4" d="M317.79,134.8c0,.1-29.32.19-65.49.19s-65.48-.09-65.48-.19,29.31-.19,65.48-.19S317.79,134.69,317.79,134.8Z" transform="translate(-29.25 -22.32)"/><path class="cls-4" d="M317.79,114.66c0,.11-29.32.19-65.49.19s-65.48-.08-65.48-.19,29.31-.19,65.48-.19S317.79,114.56,317.79,114.66Z" transform="translate(-29.25 -22.32)"/><path class="cls-4" d="M317.79,94.42c0,.11-29.32.19-65.49.19s-65.48-.08-65.48-.19,29.31-.19,65.48-.19S317.79,94.32,317.79,94.42Z" transform="translate(-29.25 -22.32)"/><path class="cls-4" d="M317.79,154.93c0,.11-29.32.2-65.49.2s-65.48-.09-65.48-.2,29.31-.19,65.48-.19S317.79,154.83,317.79,154.93Z" transform="translate(-29.25 -22.32)"/><path class="cls-5" d="M188.17,172.8V154.93l11.13-17.28,7.56,5.8,15.51-24.1,9.14,6.44,12.73-22.22L254.58,112l15.51-29.48,16.71,32.95L300.32,99l15.91-4.55V172.8Z" transform="translate(-29.25 -22.32)"/><path class="cls-4" d="M317.79,88.08h-.28l-.83,0-3.23,0-12.2,0,.08,0-13.09,17.09-.05.06h-.07l-32.75,0,.15-.09-13.77,22.92-13.51,22.48-.15.23-.16-.22-17.75-24.39h.26l-16.17,25.23-4.5,7-1.19,1.82c-.27.41-.42.62-.42.62s.13-.23.38-.64.66-1.05,1.15-1.85l4.43-7c3.85-6.07,9.37-14.76,16-25.3l.12-.19.14.19,17.79,24.35h-.3c4.28-7.13,8.82-14.67,13.5-22.47L255.2,105l.06-.09h.1l32.75,0L288,105l13.17-17,0,0h.05l12.21,0,3.23,0h.83Z" transform="translate(-29.25 -22.32)"/><path class="cls-4" d="M214.42,133.1a1.21,1.21,0,1,0-1.26-1.21A1.24,1.24,0,0,0,214.42,133.1Z" transform="translate(-29.25 -22.32)"/><path class="cls-4" d="M252.2,111.62a1.21,1.21,0,1,0-1.26-1.21A1.23,1.23,0,0,0,252.2,111.62Z" transform="translate(-29.25 -22.32)"/><path class="cls-4" d="M281.56,106.35a1.21,1.21,0,1,0-1.26-1.21A1.23,1.23,0,0,0,281.56,106.35Z" transform="translate(-29.25 -22.32)"/><path class="cls-4" d="M152.69,56.71a1.46,1.46,0,1,0-1.46-1.46A1.46,1.46,0,0,0,152.69,56.71Z" transform="translate(-29.25 -22.32)"/><path class="cls-4" d="M156.94,56.71a1.46,1.46,0,1,0-1.46-1.46A1.47,1.47,0,0,0,156.94,56.71Z" transform="translate(-29.25 -22.32)"/><path class="cls-4" d="M161.18,56.71a1.46,1.46,0,1,0-1.46-1.46A1.46,1.46,0,0,0,161.18,56.71Z" transform="translate(-29.25 -22.32)"/><path class="cls-4" d="M335.67,61c0,.11-42.36.19-94.61.19s-94.62-.08-94.62-.19,42.36-.19,94.62-.19S335.67,60.89,335.67,61Z" transform="translate(-29.25 -22.32)"/><path class="cls-4" d="M197.85,267.76c-.07-.81-.16-1.61-.28-2.4s-.23-1.69-.37-2.52c.14.83.26,1.67.37,2.52S197.78,267,197.85,267.76Z" transform="translate(-29.25 -22.32)"/><path class="cls-6" d="M191.4,277.74a36.7,36.7,0,0,1-1.31-5,3.31,3.31,0,0,0-1.5-2.23,12.93,12.93,0,0,0-1.79-.4c-2.1-.63-2.67-3.57-4.66-4.48a6.86,6.86,0,0,0-2-.42c-2.67-.31-5.42-1.23-7.1-3.32a13,13,0,0,0-1.64-2,2,2,0,0,0-2.41-.22c.57,1.12,1.12,2.25,1.67,3.36a8.79,8.79,0,0,0,1.86,2.8,3,3,0,0,0,3.14.68,2.13,2.13,0,0,1,1.06-.38,1.18,1.18,0,0,1,.68.44c1.45,1.61,1,4.28-.43,5.92s-3.5,2.48-5.51,3.28a4.35,4.35,0,0,1-2.25.44c-1.4-.26-2.14-1.78-2.54-3.14-.91-3-1.35-6.28-3.22-8.82a10.87,10.87,0,0,1-1.7-2.47c-.38-1-.29-2.19-.9-3.08s-2-1.47-2-2.59a2.05,2.05,0,0,1,1.31-1.83c.72-.34,1.53-.45,2.27-.75.3-.12.62-.34.63-.65,0-.47-.65-.66-.82-1.1s.33-1,.54-1.44c.46-1.1-.69-2.22-1.8-2.67s-2.44-.77-3-1.85a6.27,6.27,0,0,1-.36-1.61,3.52,3.52,0,0,0-2.64-2.9,2.31,2.31,0,0,0-2.68,2.37,9.4,9.4,0,0,0,1,2c.31.69.22,1.73-.5,1.95-1.18.36-2.31-1.8-3.3-1,.4,1.38.79,2.76,1.2,4.16-1.55.78-3.41-.65-4.07-2.27s-.69-3.45-1.47-5-2.92-2.72-4.26-1.62c-.07,2,2.57,2.81,3.74,4.43a2.71,2.71,0,0,1-.53,3.81c-1.23.75-3.2-.55-2.73-1.91.17-.47.56-.86.61-1.37s-.49-1.13-1-1.54l-2.26-1.9a4.76,4.76,0,0,0-1.61-1c-1.55-.45-3.1.81-3.92,2.19s-1.28,3-2.42,4.18a4.42,4.42,0,0,1-6.25,0c-1.54-1.77-.75-5.07,1.51-5.72.85-.23,1.93-.21,2.38-1,.79-1.34-1.46-3.05-.69-4.4.6-1,2.17-.56,3.32-.91s1.78-1.49,2.45-2.48,1.71-2,2.88-1.71a3.65,3.65,0,0,1,.12-2.05,1.26,1.26,0,0,1,1.72-.63,2.08,2.08,0,0,0,1.12,2.73,6,6,0,0,0,3.27.24c1.1-.14,2.48-.54,2.57-1.64,0-.36-.1-.74,0-1.08.48-1.31,2.91.49,3.84-.56.54-.55-.05-1.53-.81-1.71A8.38,8.38,0,0,0,146,228c-.76,0-1.7-.37-1.73-1.13s.81-1.3.9-2c.15-1.26-2-1.59-2.74-.56s-.49,2.43-.26,3.67.34,2.73-.58,3.6c-.39.6-1.41.28-1.75-.34a5.14,5.14,0,0,1-.33-2.11,1.81,1.81,0,0,0-1.06-1.72,3.88,3.88,0,0,0-1.5.17c-2,.24-3.32-2.29-2.7-4.16s2.39-3.08,4.11-4c1.26-.69,2.82-1.35,4.07-.64.58.33,1,.89,1.56,1.23,1,.58,2.21.37,3.35.39a7.83,7.83,0,0,1,4.89,1.9c.51.46,1,1.23.59,1.78s-1.66.71-1.44,1.39a2.43,2.43,0,0,0,3.05-2,2,2,0,0,1,1.18,1.66,3.65,3.65,0,0,1,5.35.44,4.4,4.4,0,0,0,1,1.27c.44.29,1.23.14,1.29-.38a1.23,1.23,0,0,0-.09-.5c-.27-.76-.55-1.52-.82-2.27,1-.56,2.28.31,3,1.26,2.63,3.52,4.51,1.41,8.22,2,2.5.38,3.61,2,5,3.93,4.34,6,10.08,10.89,14,17.14.42.65.8,1.31,1.16,2-.07-.17-.12-.34-.19-.51a69.3,69.3,0,0,0-5.73-11.66c-.49-.78-1-1.56-1.49-2.32-.31-.48-.64-1-1-1.42s-.86-1.19-1.3-1.78-.69-.93-1.06-1.38-.5-.63-.76-.94-.56-.71-.88-1.06l-.94-1.09c-.09-.11-.19-.23-.3-.34-.33-.38-.68-.75-1-1.12a.28.28,0,0,0-.1-.12l-.29-.3c-.28-.31-.58-.62-.88-.92-.48-.5-1-1-1.48-1.46s-.85-.81-1.28-1.21l-1.16-1c-.38-.34-.77-.66-1.16-1s-1-.8-1.45-1.19h0c-1.36-1.09-2.77-2.13-4.21-3.09-.36-.25-.7-.49-1.07-.72s-.73-.48-1.09-.7-.73-.46-1.1-.67-.74-.45-1.11-.67-.6-.35-.9-.5-.3-.18-.46-.26c-.64-.36-1.29-.71-1.95-1l-1-.49c-.41-.21-.84-.42-1.27-.61l-.19-.09c-.38-.18-.76-.36-1.16-.53l-1.65-.69c-.63-.26-1.26-.52-1.9-.76s-1.42-.53-2.14-.76-1.45-.48-2.18-.71-1.46-.43-2.2-.63c-1.46-.39-2.95-.74-4.44-1,0,0-.06,0-.08,0-.57-.11-1.15-.22-1.72-.31l-.11,0-.77-.13c-1.07-.18-2.14-.32-3.24-.45l-.39,0c-.32,0-.63-.07-1-.1-.71-.07-1.44-.13-2.17-.17s-1.51-.09-2.28-.12-1.59,0-2.39,0q-3.18,0-6.28.28c-.49,0-1,.08-1.46.14l-1.52.18c-.5.06-1,.13-1.5.21l-1.51.25c-.43.06-.86.14-1.29.23-1.06.2-2.11.43-3.14.68-.48.11-1,.23-1.45.37s-1,.26-1.44.39c-.8.23-1.57.47-2.35.72h0l-1.89.64,0,0c-.64.23-1.26.47-1.89.71l-.1,0c-.58.22-1.15.46-1.71.69-.71.3-1.41.61-2.09.93s-1.16.54-1.72.82-1.22.6-1.81.92l-.07,0c-.58.31-1.15.62-1.71.95s-1.16.66-1.73,1h0c-.54.33-1.07.65-1.6,1l-.6.39c-.56.36-1.1.73-1.65,1.12s-1.33.94-2,1.42-1.13.87-1.69,1.31a70.66,70.66,0,0,0-8.83,8.37c-1,1.06-1.86,2.14-2.73,3.24-.75.95-1.47,1.9-2.15,2.89s-1.22,1.74-1.79,2.63c.57-.89,1.17-1.77,1.79-2.63l.54-.05a8.31,8.31,0,0,0,3-.49,17.08,17.08,0,0,0,2.2-1.71c2-1.39,5.16-1.65,5.69-4a17.13,17.13,0,0,1,.26-2.39c.55-1.41,2.43-1.61,3.93-1.59.65,0,1.4.09,1.69.65a1.59,1.59,0,0,1-.07,1.31,12.18,12.18,0,0,1-5.16,6.34c-2,1.19-4.51,2.11-5.05,4.34.27.75,1.65.7,1.76,1.48.08.63-.73,1-1,1.52-.43.82.55,1.82,1.48,1.78a4.17,4.17,0,0,0,2.4-1.35c2-1.9,4.19-3.95,4.93-6.64.32-1.12.43-2.42,1.33-3.16a2.2,2.2,0,0,1,3.34,1.06c.88-.49,2.27-.86,2.73.06a4.71,4.71,0,0,1,.19,1.06c.29,1.43,2.26,2.09,2.46,3.54.24,1.67-1.91,2.54-3.58,2.8L87.7,239a4.14,4.14,0,0,0-1.89.61,1.47,1.47,0,0,0-.56,1.76,4.32,4.32,0,0,0,.79.81,2.42,2.42,0,0,1-1.55,3.91c-.61,0-1.21-.2-1.81-.22-1.8-.08-3.23,1.5-4.09,3.09s-1.49,3.4-2.93,4.47c-2.32,1.75-6.31,1.34-7.43,4a6.41,6.41,0,0,0,0,3.45,4.65,4.65,0,0,1-.41,3.39c-.67.94-2.4,1.14-2.89.08a2.52,2.52,0,0,1-.07-1.49c.27-1.66.53-3.33.79-5,.19-1.24.36-2.62-.37-3.64-1-1.41-3.32-1.28-4.65-.14a8.19,8.19,0,0,0-2.23,4.61,19.89,19.89,0,0,1-1.29,4.47c-.23,1.4-.42,2.81-.57,4.24s-.25,2.91-.3,4.4a6.88,6.88,0,0,0,.57-.54c.71-.73,2.14-3.82,3.42-2.31a1.16,1.16,0,0,1,0,1.41c-.39.5-1.18.62-1.48,1.17s.14,1.46.75,1.89a6.58,6.58,0,0,1,1.78,1.33c.82,1.17,0,3,.83,4.17.69,1,2.15,1.1,3.4,1.23l.42.07A5.68,5.68,0,0,1,70.79,275c4.66-1.06,10.77,2.8,13.39,6.31,2.93,3.92,4.31,9.48,8.78,11.44,3.21,1.41,7.76.9,9.33,4,1.39,2.81-1,6-1.41,9.09-.24,2.05.44,4.1.6,6.16s-.47,4.47-2.34,5.34c-1,.47-2.36.41-3.21,1.2-1.49,1.42-.27,4.34-1.76,5.76a8,8,0,0,1-1.9,1c-3.36,1.7-3.27,6.64-1.71,10.07l.17.36a71.06,71.06,0,0,0,36.44,10.07,70.8,70.8,0,0,0,33.34-8.3h0a71.18,71.18,0,0,0,6.28-3.79,69.58,69.58,0,0,0,8.83-7,66.64,66.64,0,0,0,5.39-5.63c1.2-1.37,2.32-2.8,3.4-4.26.55-.75,1.09-1.51,1.6-2.28a69.65,69.65,0,0,0,4.24-7.1,71.05,71.05,0,0,0,7.3-23.13c.22-1.59.39-3.21.5-4.84a4.13,4.13,0,0,1-2.86,1.27C193.49,280.74,192.09,279.31,191.4,277.74Z" transform="translate(-29.25 -22.32)"/><path class="cls-8" d="M110.2,222.36c-1.41.84-2.16,2.43-3.24,3.65s-3,2.11-4.32,1.09a3,3,0,0,1-1-2.09,5.41,5.41,0,0,1,.76-3.26c.62-1,1.55-1.78,2.07-2.83s.41-2.59-.65-3.08c-.57-.26-1.3-.16-1.81-.54-.91-.67-.26-2.26.81-2.67a8,8,0,0,1,3.38,0c4.12.26,7.14-2.44,10.24-4.68,2.41-1.74,7.54-3.8,10.32-2,1.12.71,1.55,2.54.5,3.34-.47.36-1.11.44-1.55.84s-.6,1.25-.9,1.9c-.78,1.66-3,2.27-3.75,4-.43,1-.24,2.29-.91,3.17a3.9,3.9,0,0,1-2.31,1.15l-5.37,1.27A8,8,0,0,0,110.2,222.36Z" transform="translate(-29.25 -22.32)"/><path class="cls-4" d="M158.21,309.81c-1.78,2.68-2.1,6-2.6,9.22s-1.34,6.57-3.79,8.67-6.94,2-8.28-1c-.74-1.59-.36-3.46-.76-5.16-.52-2.22-2.28-3.93-3.12-6.05a16.81,16.81,0,0,1-.78-5.75c-.32-10.62-2.9-21.7-10.13-29.48a7,7,0,0,0-3.16-2.22,4,4,0,0,0-4.15,1.43,15.85,15.85,0,0,1-1.59,2.4c-1.54,1.41-4.24.4-5.27-1.42s-.89-4.05-.72-6.14c.21-2.58.43-5.17.64-7.75a6.54,6.54,0,0,1,1.15-3.83c1.27-1.46,3.53-1.53,5.07-2.69,2-1.51,2.3-4.4,3.57-6.59s5.27-3.11,5.86-.65c4.23-9,13.57,4.4,19.12,3.39,1.61-.3,3.19-1.07,4.81-.85,2.87.41,4.35,3.56,5.32,6.29l4.86,13.57c.62,1.72,1.41,3.64,3.12,4.3,1.31.51,2.83.12,4.15.6,3.48,1.26,2.35,6.75-.46,9.18s-6.74,3.95-8.07,7.41c-1,2.61-.2,5.66-1.28,8.24C160.94,306.81,159.32,308.14,158.21,309.81Z" transform="translate(-29.25 -22.32)"/><path class="cls-4" d="M171.44,312.76c-1.15.16-2.5-.41-3.37.36a3.76,3.76,0,0,0-.82,1.81,3.9,3.9,0,0,1-1.62,2.22,2.42,2.42,0,0,1-2.65,0,1.79,1.79,0,0,1-.36-2.48c.28-.32.68-.51,1-.81,1.53-1.43.49-4.1,1.64-5.8.68-1,1.75-2,2.5-3.05.58-.79.79-1.41,1.85-1.62C174.22,302.43,176.31,312.08,171.44,312.76Z" transform="translate(-29.25 -22.32)"/><path class="cls-8" d="M65.4,293.48c-.22-2,.45-4.07.49-6.13,0-1.42-.08-2.91-.1-4.34a19,19,0,0,1-3.61-.51,1.07,1.07,0,0,1-.67-.33,1.4,1.4,0,0,1-.14-.76c-.09-1.59-1.63-2.65-3-3.45a12.46,12.46,0,0,0-2.2-1.08c0,.17,0,.33,0,.5a70.9,70.9,0,0,0,4.52,22.54A69.16,69.16,0,0,0,65,309.23c.7,1.29,1.47,2.56,2.26,3.81,1,1.54,2,3,3.14,4.5s2.14,2.75,3.3,4.06a70,70,0,0,0,5,5.17c1.56,1.46,3.19,2.84,4.89,4.16-3.88-10.41-7.53-21-14.17-29.9C67.73,298.72,65.73,296.36,65.4,293.48Z" transform="translate(-29.25 -22.32)"/><path class="cls-4" d="M56.15,273.52c0,.43,0,.85,0,1.28s0,.69,0,1c0-.35,0-.69,0-1S56.14,274,56.15,273.52Z" transform="translate(-29.25 -22.32)"/><g class="cls-9"><g class="cls-9"><path class="cls-10" d="M87.62,333.81c.6.4,1.2.8,1.81,1.18l1.3.79-1.3-.79C88.82,334.61,88.22,334.21,87.62,333.81Z" transform="translate(-29.25 -22.32)"/></g></g><path class="cls-8" d="M171.07,289.32c2.81-2.43,3.94-7.92.46-9.18-1.32-.48-2.84-.09-4.15-.6-1.7-.66-2.5-2.58-3.12-4.3l-4.86-13.57c-1-2.73-2.45-5.88-5.32-6.29-1.62-.22-3.2.55-4.81.85-5.55,1-14.89-12.43-19.12-3.39-.58-2.46-4.58-1.53-5.86.65s-1.54,5.08-3.57,6.59c-1.54,1.16-3.8,1.23-5.07,2.69a6.54,6.54,0,0,0-1.15,3.83c-.21,2.58-.43,5.17-.64,7.75-.17,2.09-.31,4.32.72,6.14s3.73,2.83,5.27,1.42a15.85,15.85,0,0,0,1.59-2.4,4,4,0,0,1,4.15-1.43,7,7,0,0,1,3.16,2.22c7.23,7.78,9.82,18.87,10.13,29.48a16.84,16.84,0,0,0,.78,5.75c.84,2.12,2.6,3.83,3.12,6.05.4,1.7,0,3.57.76,5.16,1.34,2.93,5.84,3.06,8.28,1s3.3-5.48,3.79-8.67.82-6.54,2.6-9.22c1.11-1.67,2.74-3,3.51-4.84,1.08-2.58.28-5.63,1.28-8.24C164.33,293.27,168.27,291.74,171.07,289.32Z" transform="translate(-29.25 -22.32)"/><g class="cls-9"><g class="cls-9"><path class="cls-10" d="M56.2,271.85v0a2.47,2.47,0,0,0,0,.39c0,.42,0,.85,0,1.28,0-.43,0-.86,0-1.28A2.47,2.47,0,0,1,56.2,271.85Z" transform="translate(-29.25 -22.32)"/></g></g><g class="cls-9"><g class="cls-9"><path class="cls-10" d="M56.15,275.84c0,.35,0,.7,0,1C56.15,276.54,56.15,276.19,56.15,275.84Z" transform="translate(-29.25 -22.32)"/></g></g><path class="cls-8" d="M65.91,280.26l-.43-.07c-1.24-.14-2.71-.21-3.39-1.24-.8-1.2,0-3-.83-4.17a6.58,6.58,0,0,0-1.78-1.33c-.61-.43-1.13-1.24-.75-1.89s1.09-.66,1.48-1.17a1.14,1.14,0,0,0,0-1.4c-1.28-1.52-2.71,1.57-3.42,2.3a5.53,5.53,0,0,1-.57.54h0a2.69,2.69,0,0,0,0,.4c0,.42,0,.85,0,1.28s0,.85,0,1.28,0,.69,0,1,0,.7,0,1A11.42,11.42,0,0,1,58.35,278c1.39.8,2.93,1.85,3,3.45a1.4,1.4,0,0,0,.14.76,1.07,1.07,0,0,0,.67.33,19.87,19.87,0,0,0,3.61.51" transform="translate(-29.25 -22.32)"/><path class="cls-8" d="M65.79,283c0,1.43.12,2.92.1,4.34,0,2.06-.71,4.09-.49,6.13.33,2.88,2.33,5.24,4.07,7.55,6.64,8.86,10.29,19.49,14.17,29.9h0c.72.57,1.45,1.11,2.19,1.64.59.42,1.18.84,1.78,1.24s1.2.8,1.81,1.18l1.29.79c0-.13-.11-.24-.16-.36C89,332,88.9,327,92.26,325.34a7.55,7.55,0,0,0,1.91-1c1.49-1.42.27-4.34,1.76-5.76.84-.78,2.16-.73,3.2-1.2,1.88-.86,2.49-3.27,2.34-5.34s-.83-4.1-.59-6.16c.37-3.12,2.8-6.27,1.4-9.09-1.56-3.13-6.11-2.63-9.32-4-4.47-2-5.86-7.53-8.78-11.45C81.56,277.8,75.44,274,70.79,275a5.69,5.69,0,0,0-4.88,5.25" transform="translate(-29.25 -22.32)"/><path class="cls-8" d="M60.59,254.11c1.33-1.13,3.62-1.27,4.65.15.73,1,.56,2.39.37,3.63-.26,1.66-.52,3.33-.79,5a2.55,2.55,0,0,0,.07,1.5c.49,1.06,2.22.85,2.89-.09a4.65,4.65,0,0,0,.41-3.39,6.41,6.41,0,0,1,0-3.45c1.12-2.67,5.11-2.27,7.43-4,1.44-1.08,2.08-2.89,2.93-4.48s2.28-3.17,4.08-3.09c.61,0,1.21.25,1.81.23A2.43,2.43,0,0,0,86,242.18a4.59,4.59,0,0,1-.79-.8,1.47,1.47,0,0,1,.56-1.77A4.26,4.26,0,0,1,87.7,239l4.55-.72c1.68-.26,3.83-1.12,3.59-2.8-.2-1.45-2.17-2.1-2.46-3.54a5.35,5.35,0,0,0-.19-1.06c-.46-.92-1.85-.55-2.74,0a2.19,2.19,0,0,0-3.33-1.07c-.9.74-1,2.05-1.33,3.16-.74,2.7-2.89,4.74-4.94,6.65a4,4,0,0,1-2.39,1.34c-.93.05-1.91-.95-1.49-1.77.3-.57,1.11-.89,1-1.52-.12-.79-1.49-.73-1.76-1.49.54-2.22,3.09-3.14,5.05-4.34a12.23,12.23,0,0,0,5.16-6.34,1.6,1.6,0,0,0,.07-1.3c-.29-.56-1-.65-1.69-.65-1.5,0-3.38.18-3.93,1.58a17.27,17.27,0,0,0-.26,2.4c-.53,2.34-3.73,2.59-5.69,4a18,18,0,0,1-2.2,1.71,8.3,8.3,0,0,1-3,.48c-.18,0-.36,0-.54.06-.62.86-1.22,1.73-1.79,2.63s-1.13,1.79-1.67,2.71A70.86,70.86,0,0,0,59.6,252.8q-.83,2.52-1.46,5.12c-.42,1.73-.78,3.5-1.07,5.28a19.9,19.9,0,0,0,1.28-4.48A8.3,8.3,0,0,1,60.59,254.11Z" transform="translate(-29.25 -22.32)"/><g class="cls-9"><g class="cls-9"><path class="cls-10" d="M198.18,273.82c0-1,0-2-.09-3,0,1,.09,2,.09,3,0,.33,0,.66,0,1,0,1.58,0,3.13-.14,4.68.09-1.55.14-3.1.14-4.68C198.2,274.48,198.2,274.15,198.18,273.82Z" transform="translate(-29.25 -22.32)"/></g></g><g class="cls-9"><g class="cls-9"><path class="cls-10" d="M193.74,250c.34.9.66,1.8.95,2.71-.29-.91-.61-1.81-.95-2.71,0,0,0,0,0,0Z" transform="translate(-29.25 -22.32)"/></g></g><path class="cls-8" d="M198.18,273.82c0-1,0-2-.09-3s-.13-2-.24-3c-.07-.81-.16-1.61-.28-2.4s-.23-1.69-.37-2.52a70.38,70.38,0,0,0-1.66-7.38c-.27-.92-.55-1.84-.85-2.76s-.61-1.81-.95-2.71h0c-.36-.68-.74-1.34-1.16-2-4-6.26-9.68-11.16-14-17.14-1.42-1.95-2.52-3.55-5-3.94-3.72-.57-5.59,1.55-8.22-2-.71-.95-1.95-1.83-3-1.26.27.75.55,1.5.82,2.27a1.16,1.16,0,0,1,.09.49c-.06.53-.85.68-1.3.38a4.62,4.62,0,0,1-1-1.27,3.63,3.63,0,0,0-5.34-.43,2,2,0,0,0-1.18-1.67,2.43,2.43,0,0,1-3.06,2c-.21-.69,1-.81,1.44-1.39s-.07-1.32-.58-1.78a7.77,7.77,0,0,0-4.89-1.9c-1.14,0-2.36.19-3.35-.39-.58-.34-1-.9-1.57-1.23-1.24-.71-2.81-.06-4.07.64-1.72,1-3.49,2.16-4.1,4s.74,4.39,2.7,4.16a3.65,3.65,0,0,1,1.49-.17,1.8,1.8,0,0,1,1.07,1.72,5.09,5.09,0,0,0,.33,2.1c.34.63,1.36.94,1.75.35.92-.88.81-2.35.57-3.6s-.48-2.65.26-3.68,2.89-.69,2.75.57c-.09.74-.94,1.28-.9,2s1,1.17,1.73,1.14a8.37,8.37,0,0,1,2.28-.12c.76.19,1.35,1.16.81,1.71-.93,1.06-3.36-.75-3.84.57-.14.33,0,.72,0,1.07-.09,1.11-1.47,1.51-2.57,1.65a6.13,6.13,0,0,1-3.27-.24,2.07,2.07,0,0,1-1.12-2.73,1.25,1.25,0,0,0-1.72.63,3.62,3.62,0,0,0-.12,2c-1.17-.26-2.22.73-2.88,1.71s-1.32,2.14-2.45,2.49-2.72-.13-3.32.91c-.77,1.35,1.47,3.06.69,4.39-.45.76-1.53.74-2.39,1-2.26.64-3,3.95-1.5,5.71a4.41,4.41,0,0,0,6.25,0c1.13-1.16,1.59-2.79,2.42-4.18s2.37-2.64,3.92-2.19a4.56,4.56,0,0,1,1.61,1l2.26,1.9c.48.4,1,.91,1,1.54s-.44.9-.61,1.37c-.47,1.36,1.49,2.65,2.73,1.91a2.71,2.71,0,0,0,.53-3.81c-1.17-1.62-3.81-2.43-3.75-4.43,1.35-1.1,3.48.06,4.26,1.62s.81,3.39,1.48,5,2.52,3.05,4.07,2.26c-.41-1.39-.8-2.78-1.2-4.16,1-.74,2.12,1.42,3.3,1.06.72-.23.81-1.26.5-2a9.61,9.61,0,0,1-1-2,2.32,2.32,0,0,1,2.69-2.37,3.51,3.51,0,0,1,2.63,2.9,6.53,6.53,0,0,0,.36,1.6c.52,1.08,1.86,1.41,3,1.86s2.26,1.56,1.8,2.66c-.22.49-.72.95-.54,1.44s.82.63.82,1.11c0,.31-.34.52-.63.65-.74.3-1.55.4-2.27.75a2.07,2.07,0,0,0-1.32,1.82c.09,1.13,1.43,1.67,2.06,2.6s.52,2.07.9,3.08a10.81,10.81,0,0,0,1.7,2.46c1.87,2.54,2.3,5.81,3.21,8.83.41,1.36,1.15,2.88,2.55,3.13a4.19,4.19,0,0,0,2.24-.43c2-.8,4.11-1.66,5.51-3.29s1.89-4.3.44-5.91a1.13,1.13,0,0,0-.68-.44,2,2,0,0,0-1.06.37,3,3,0,0,1-3.14-.67,8.9,8.9,0,0,1-1.86-2.8L169,259.67a2,2,0,0,1,2.41.22,13.4,13.4,0,0,1,1.64,2c1.67,2.09,4.43,3,7.09,3.33a6.86,6.86,0,0,1,2,.42c2,.91,2.56,3.84,4.66,4.47a13,13,0,0,1,1.79.41,3.31,3.31,0,0,1,1.5,2.22,34.58,34.58,0,0,0,1.31,5c.69,1.58,2.09,3,3.8,3a4.13,4.13,0,0,0,2.86-1.27h0c.09-1.56.14-3.11.14-4.68C198.2,274.48,198.2,274.15,198.18,273.82Z" transform="translate(-29.25 -22.32)"/><path class="cls-8" d="M169.59,303.34c-1.06.21-1.27.83-1.85,1.62-.75,1-1.82,2-2.5,3.05-1.15,1.7-.11,4.37-1.64,5.8-.3.3-.7.49-1,.81a1.79,1.79,0,0,0,.36,2.48,2.42,2.42,0,0,0,2.65,0,3.9,3.9,0,0,0,1.62-2.22,3.76,3.76,0,0,1,.82-1.81c.87-.76,2.22-.2,3.37-.36C176.31,312.08,174.22,302.43,169.59,303.34Z" transform="translate(-29.25 -22.32)"/><path class="cls-8" d="M171.07,289.32c2.81-2.43,3.94-7.92.46-9.18-1.32-.48-2.84-.09-4.15-.6-1.7-.66-2.5-2.58-3.12-4.3l-4.86-13.57c-1-2.73-2.45-5.88-5.32-6.29-1.62-.22-3.2.55-4.81.85-5.55,1-14.89-12.43-19.12-3.39-.58-2.46-4.58-1.53-5.86.65s-1.54,5.08-3.57,6.59c-1.54,1.16-3.8,1.23-5.07,2.69a6.54,6.54,0,0,0-1.15,3.83c-.21,2.58-.43,5.17-.64,7.75-.17,2.09-.31,4.32.72,6.14s3.73,2.83,5.27,1.42a15.85,15.85,0,0,0,1.59-2.4,4,4,0,0,1,4.15-1.43,7,7,0,0,1,3.16,2.22c7.23,7.78,9.82,18.87,10.13,29.48a16.84,16.84,0,0,0,.78,5.75c.84,2.12,2.6,3.83,3.12,6.05.4,1.7,0,3.57.76,5.16,1.34,2.93,5.84,3.06,8.28,1s3.3-5.48,3.79-8.67.82-6.54,2.6-9.22c1.11-1.67,2.74-3,3.51-4.84,1.08-2.58.28-5.63,1.28-8.24C164.33,293.27,168.27,291.74,171.07,289.32Z" transform="translate(-29.25 -22.32)"/><path class="cls-8" d="M198.18,273.82c0-1,0-2-.09-3s-.13-2-.24-3c-.07-.81-.16-1.61-.28-2.4s-.23-1.69-.37-2.52a70.38,70.38,0,0,0-1.66-7.38c-.27-.92-.55-1.84-.85-2.76s-.61-1.81-.95-2.71h0c-.36-.68-.74-1.34-1.16-2-4-6.26-9.68-11.16-14-17.14-1.42-1.95-2.52-3.55-5-3.94-3.72-.57-5.59,1.55-8.22-2-.71-.95-1.95-1.83-3-1.26.27.75.55,1.5.82,2.27a1.16,1.16,0,0,1,.09.49c-.06.53-.85.68-1.3.38a4.62,4.62,0,0,1-1-1.27,3.63,3.63,0,0,0-5.34-.43,2,2,0,0,0-1.18-1.67,2.43,2.43,0,0,1-3.06,2c-.21-.69,1-.81,1.44-1.39s-.07-1.32-.58-1.78a7.77,7.77,0,0,0-4.89-1.9c-1.14,0-2.36.19-3.35-.39-.58-.34-1-.9-1.57-1.23-1.24-.71-2.81-.06-4.07.64-1.72,1-3.49,2.16-4.1,4s.74,4.39,2.7,4.16a3.65,3.65,0,0,1,1.49-.17,1.8,1.8,0,0,1,1.07,1.72,5.09,5.09,0,0,0,.33,2.1c.34.63,1.36.94,1.75.35.92-.88.81-2.35.57-3.6s-.48-2.65.26-3.68,2.89-.69,2.75.57c-.09.74-.94,1.28-.9,2s1,1.17,1.73,1.14a8.37,8.37,0,0,1,2.28-.12c.76.19,1.35,1.16.81,1.71-.93,1.06-3.36-.75-3.84.57-.14.33,0,.72,0,1.07-.09,1.11-1.47,1.51-2.57,1.65a6.13,6.13,0,0,1-3.27-.24,2.07,2.07,0,0,1-1.12-2.73,1.25,1.25,0,0,0-1.72.63,3.62,3.62,0,0,0-.12,2c-1.17-.26-2.22.73-2.88,1.71s-1.32,2.14-2.45,2.49-2.72-.13-3.32.91c-.77,1.35,1.47,3.06.69,4.39-.45.76-1.53.74-2.39,1-2.26.64-3,3.95-1.5,5.71a4.41,4.41,0,0,0,6.25,0c1.13-1.16,1.59-2.79,2.42-4.18s2.37-2.64,3.92-2.19a4.56,4.56,0,0,1,1.61,1l2.26,1.9c.48.4,1,.91,1,1.54s-.44.9-.61,1.37c-.47,1.36,1.49,2.65,2.73,1.91a2.71,2.71,0,0,0,.53-3.81c-1.17-1.62-3.81-2.43-3.75-4.43,1.35-1.1,3.48.06,4.26,1.62s.81,3.39,1.48,5,2.52,3.05,4.07,2.26c-.41-1.39-.8-2.78-1.2-4.16,1-.74,2.12,1.42,3.3,1.06.72-.23.81-1.26.5-2a9.61,9.61,0,0,1-1-2,2.32,2.32,0,0,1,2.69-2.37,3.51,3.51,0,0,1,2.63,2.9,6.53,6.53,0,0,0,.36,1.6c.52,1.08,1.86,1.41,3,1.86s2.26,1.56,1.8,2.66c-.22.49-.72.95-.54,1.44s.82.63.82,1.11c0,.31-.34.52-.63.65-.74.3-1.55.4-2.27.75a2.07,2.07,0,0,0-1.32,1.82c.09,1.13,1.43,1.67,2.06,2.6s.52,2.07.9,3.08a10.81,10.81,0,0,0,1.7,2.46c1.87,2.54,2.3,5.81,3.21,8.83.41,1.36,1.15,2.88,2.55,3.13a4.19,4.19,0,0,0,2.24-.43c2-.8,4.11-1.66,5.51-3.29s1.89-4.3.44-5.91a1.13,1.13,0,0,0-.68-.44,2,2,0,0,0-1.06.37,3,3,0,0,1-3.14-.67,8.9,8.9,0,0,1-1.86-2.8L169,259.67a2,2,0,0,1,2.41.22,13.4,13.4,0,0,1,1.64,2c1.67,2.09,4.43,3,7.09,3.33a6.86,6.86,0,0,1,2,.42c2,.91,2.56,3.84,4.66,4.47a13,13,0,0,1,1.79.41,3.31,3.31,0,0,1,1.5,2.22,34.58,34.58,0,0,0,1.31,5c.69,1.58,2.09,3,3.8,3a4.13,4.13,0,0,0,2.86-1.27h0c.09-1.56.14-3.11.14-4.68C198.2,274.48,198.2,274.15,198.18,273.82Z" transform="translate(-29.25 -22.32)"/><path class="cls-8" d="M169.59,303.34c-1.06.21-1.27.83-1.85,1.62-.75,1-1.82,2-2.5,3.05-1.15,1.7-.11,4.37-1.64,5.8-.3.3-.7.49-1,.81a1.79,1.79,0,0,0,.36,2.48,2.42,2.42,0,0,0,2.65,0,3.9,3.9,0,0,0,1.62-2.22,3.76,3.76,0,0,1,.82-1.81c.87-.76,2.22-.2,3.37-.36C176.31,312.08,174.22,302.43,169.59,303.34Z" transform="translate(-29.25 -22.32)"/><path class="cls-5" d="M185.67,340.3l-1.27,5.33S175.68,357,173,356.4c-1.76-.36.41-3.31,3.72-11.91l.7-3.56Z" transform="translate(-29.25 -22.32)"/><path class="cls-4" d="M172.64,354.73a1.24,1.24,0,0,0,.47.45,1.61,1.61,0,0,0,1.66-.24,46.12,46.12,0,0,0,4.34-4.11c1.62-1.69,3-3.32,3.93-4.52l1.11-1.43c.11-.15.21-.27.3-.4a.85.85,0,0,1,.12-.13l-.09.15-.28.41c-.25.35-.61.86-1.08,1.47a55.57,55.57,0,0,1-3.89,4.56,43.33,43.33,0,0,1-4.39,4.1,2.14,2.14,0,0,1-1,.36,1.38,1.38,0,0,1-.77-.17.89.89,0,0,1-.37-.34A.52.52,0,0,1,172.64,354.73Z" transform="translate(-29.25 -22.32)"/><path class="cls-4" d="M173.88,351.09a1.47,1.47,0,0,1,.71-.08,3.83,3.83,0,0,1,1.65.57,3,3,0,0,1,1.19,1.27,1.61,1.61,0,0,1,.19.69s-.08-.26-.29-.65a3.21,3.21,0,0,0-1.18-1.17,4.2,4.2,0,0,0-1.57-.6C174.15,351.06,173.88,351.12,173.88,351.09Z" transform="translate(-29.25 -22.32)"/><path class="cls-4" d="M182.13,348.43s0-.08-.11-.25a5.79,5.79,0,0,1-.17-.73,4,4,0,0,1,.41-2.43,3.77,3.77,0,0,1,1.76-1.71,3.07,3.07,0,0,1,.72-.22.75.75,0,0,1,.28,0,5.44,5.44,0,0,0-1,.34,3.82,3.82,0,0,0-1.67,1.69,4.05,4.05,0,0,0-.44,2.33C182,348.05,182.16,348.43,182.13,348.43Z" transform="translate(-29.25 -22.32)"/><path class="cls-4" d="M185.12,341.21s-.16.76-.33,1.7a5.68,5.68,0,0,1-.45,1.68s.14-.76.3-1.71A5.18,5.18,0,0,1,185.12,341.21Z" transform="translate(-29.25 -22.32)"/><path class="cls-4" d="M176.56,345.24a2,2,0,0,1,1.12,0,2.07,2.07,0,0,1,1,.48s-.46-.19-1.05-.33S176.56,345.29,176.56,345.24Z" transform="translate(-29.25 -22.32)"/><path class="cls-4" d="M176.38,346.15a1.8,1.8,0,0,1,1.77.42s-.37-.19-.86-.3S176.39,346.2,176.38,346.15Z" transform="translate(-29.25 -22.32)"/><path class="cls-4" d="M175.68,347.3a1.16,1.16,0,0,1,1-.13,1.23,1.23,0,0,1,.83.54,3.57,3.57,0,0,0-.86-.39A3.69,3.69,0,0,0,175.68,347.3Z" transform="translate(-29.25 -22.32)"/><path class="cls-4" d="M177.16,344.86s.4-.11,1-.35a9.9,9.9,0,0,0,1.06-.51,6.12,6.12,0,0,0,.57-.37c.18-.13.38-.32.37-.53s-.27-.32-.46-.27a1.29,1.29,0,0,0-.54.36c-.32.3-.6.59-.82.84-.45.5-.69.83-.71.82s0-.1.14-.26.27-.37.48-.63.49-.56.81-.87a1.31,1.31,0,0,1,.6-.41.51.51,0,0,1,.66.41.88.88,0,0,1-.44.67c-.2.14-.4.26-.59.37a6.88,6.88,0,0,1-1.09.48,4.86,4.86,0,0,1-.77.21A1.48,1.48,0,0,1,177.16,344.86Z" transform="translate(-29.25 -22.32)"/><path class="cls-4" d="M177.62,344.75a9.44,9.44,0,0,1-.16-1,4.12,4.12,0,0,0-.3-1,2.14,2.14,0,0,0-.32-.52c-.14-.15-.34-.28-.5-.18s-.19.33-.16.53a2.28,2.28,0,0,0,.17.58,3.11,3.11,0,0,0,.57.88c.4.45.72.66.7.69a1.08,1.08,0,0,1-.23-.14,4.32,4.32,0,0,1-.56-.47,3.38,3.38,0,0,1-.62-.9,2.81,2.81,0,0,1-.19-.62.68.68,0,0,1,.24-.69.58.58,0,0,1,.69.22,2.16,2.16,0,0,1,.34.55,3.72,3.72,0,0,1,.28,1.06c0,.3.05.55.06.72A1.23,1.23,0,0,1,177.62,344.75Z" transform="translate(-29.25 -22.32)"/><path class="cls-5" d="M227.44,342.78l0-7.11-13.32-.16-.17,10.4.83.06c3.67.25,18.69,1,21.15.29C238.72,345.46,227.44,342.78,227.44,342.78Z" transform="translate(-29.25 -22.32)"/><path class="cls-4" d="M213.81,345.6l.23,0,.66.05,2.42.13c2,.1,4.86.2,8,.24s6,0,8,0l2.42-.07.66,0c.15,0,.22,0,.22,0h-.88l-2.42,0c-2,0-4.87,0-8,0s-6-.12-8-.19l-2.42-.09H214A1.34,1.34,0,0,0,213.81,345.6Z" transform="translate(-29.25 -22.32)"/><path class="cls-4" d="M231.74,346.19a5.71,5.71,0,0,1,.47-1.14,4.85,4.85,0,0,1,.84-.92,1.77,1.77,0,0,0-1,.83A1.83,1.83,0,0,0,231.74,346.19Z" transform="translate(-29.25 -22.32)"/><path class="cls-4" d="M227.84,344.14s.23-.21.42-.51a1.59,1.59,0,0,0,.3-.59s-.23.2-.43.5S227.8,344.11,227.84,344.14Z" transform="translate(-29.25 -22.32)"/><path class="cls-4" d="M226.77,343.58s.24-.1.47-.3.4-.4.37-.43-.24.1-.47.3S226.74,343.55,226.77,343.58Z" transform="translate(-29.25 -22.32)"/><path class="cls-4" d="M226.8,342.41a1.64,1.64,0,0,0,.69-.08c0-.05-.31-.09-.69-.09s-.7,0-.7.09A1.66,1.66,0,0,0,226.8,342.41Z" transform="translate(-29.25 -22.32)"/><path class="cls-4" d="M225.88,341.41a1.36,1.36,0,0,0,.77.24,1.42,1.42,0,0,0,.81-.1,5.55,5.55,0,0,0-.79-.06A4.65,4.65,0,0,0,225.88,341.41Z" transform="translate(-29.25 -22.32)"/><path class="cls-4" d="M228.31,343a2.18,2.18,0,0,0,.85,0,5.39,5.39,0,0,0,.92-.19,2.7,2.7,0,0,0,.52-.21.48.48,0,0,0,.22-.26.36.36,0,0,0-.13-.35,1.58,1.58,0,0,0-1.95.44,1.35,1.35,0,0,0-.28.57.45.45,0,0,0,0,.23,2.33,2.33,0,0,1,.4-.73,1.57,1.57,0,0,1,.74-.46,1.3,1.3,0,0,1,1,.08c.13.1.08.26-.08.35a2.55,2.55,0,0,1-.48.2,5.37,5.37,0,0,1-.88.22C228.63,343,228.31,343,228.31,343Z" transform="translate(-29.25 -22.32)"/><path class="cls-4" d="M228.53,343a.84.84,0,0,0,.1-.59,1.29,1.29,0,0,0-.22-.63.84.84,0,0,0-.71-.44.33.33,0,0,0-.27.39,1,1,0,0,0,.14.38,2.61,2.61,0,0,0,.4.52,1.37,1.37,0,0,0,.49.36s-.17-.16-.41-.43a3.34,3.34,0,0,1-.35-.52c-.11-.18-.19-.51,0-.55s.43.2.56.37a1.45,1.45,0,0,1,.23.56A3.75,3.75,0,0,1,228.53,343Z" transform="translate(-29.25 -22.32)"/><path class="cls-4" d="M214.13,342s.38,0,1,.05a4.14,4.14,0,0,1,3.45,2.82,9.76,9.76,0,0,1,.24,1,.73.73,0,0,0,0-.27,3.28,3.28,0,0,0-.14-.72,4.14,4.14,0,0,0-1.32-2,4.22,4.22,0,0,0-2.23-.9,4.16,4.16,0,0,0-.73,0Z" transform="translate(-29.25 -22.32)"/><path class="cls-4" d="M215.52,341.91a47,47,0,0,0,0-5.48,47,47,0,0,0,0,5.48Z" transform="translate(-29.25 -22.32)"/><path class="cls-4" d="M220.51,344.58a7.12,7.12,0,0,0,2,.22,7.5,7.5,0,0,0,1.95-.13s-.88,0-1.95,0S220.52,344.54,220.51,344.58Z" transform="translate(-29.25 -22.32)"/><path class="cls-4" d="M217.91,344.55s.07.18.15.38.13.38.18.38.07-.21,0-.44S217.93,344.52,217.91,344.55Z" transform="translate(-29.25 -22.32)"/><path class="cls-4" d="M217,343.33s0,.17.19.31.27.23.3.2,0-.17-.19-.31S217,343.3,217,343.33Z" transform="translate(-29.25 -22.32)"/><path class="cls-4" d="M215.54,342.73s.18,0,.38.12.33.18.37.15-.08-.21-.32-.3S215.52,342.69,215.54,342.73Z" transform="translate(-29.25 -22.32)"/><path class="cls-4" d="M214.53,342.44s.06.11.17.16.21,0,.22,0,0-.11-.16-.15S214.54,342.4,214.53,342.44Z" transform="translate(-29.25 -22.32)"/><path class="cls-4" d="M236.42,206.64l-5.11,133.44-20.73.44L214,224.9,190.7,341.4H171l25.39-134.49Z" transform="translate(-29.25 -22.32)"/><path class="cls-5" d="M218.8,211.5a12.49,12.49,0,0,1-.24,2.2c-.19,1.35-.48,3.21-.83,5.26a21.21,21.21,0,0,1-.59,2.9,4.21,4.21,0,0,1-1.35,2,3.2,3.2,0,0,1-1.51.67,1.22,1.22,0,0,1-.6,0,3.87,3.87,0,0,0,1.94-.86,4,4,0,0,0,1.2-1.94,24.68,24.68,0,0,0,.55-2.86c.35-2.05.68-3.91.94-5.25A13.39,13.39,0,0,1,218.8,211.5Z" transform="translate(-29.25 -22.32)"/><path class="cls-5" d="M214.49,212.14s-.13.24,0,.6a.69.69,0,0,0,.35.44.56.56,0,0,0,.61-.12.6.6,0,0,0,.21-.6.75.75,0,0,0-.4-.4c-.34-.14-.57,0-.6-.05s.19-.3.68-.19a.87.87,0,0,1,.63.53.93.93,0,0,1-1.29,1.13.89.89,0,0,1-.44-.7C214.16,212.29,214.47,212.09,214.49,212.14Z" transform="translate(-29.25 -22.32)"/><path class="cls-5" d="M203.35,214a2.88,2.88,0,0,1-.27-1.9,2.77,2.77,0,0,1,.67-1.8c.1,0-.21.83-.31,1.84S203.46,214,203.35,214Z" transform="translate(-29.25 -22.32)"/><path class="cls-5" d="M205.84,213.88a4.56,4.56,0,0,1,.28-3.86c.09,0-.14.87-.21,1.93A15.54,15.54,0,0,1,205.84,213.88Z" transform="translate(-29.25 -22.32)"/><path class="cls-5" d="M227.27,214.43a13.17,13.17,0,0,1,.12-2,13,13,0,0,1,.09-2,3.89,3.89,0,0,1,.28,2A3.77,3.77,0,0,1,227.27,214.43Z" transform="translate(-29.25 -22.32)"/><path class="cls-5" d="M230,214.27c-.1,0,.23-.91.3-2s-.12-2,0-2.06a3.35,3.35,0,0,1,.37,2.09A3.24,3.24,0,0,1,230,214.27Z" transform="translate(-29.25 -22.32)"/><path class="cls-11" d="M207.53,151.13l12.8-1c.08-1.49,0-7.27,0-7.27s5.32-.83,5.39-6.16-.86-17.55-.86-17.55a18.5,18.5,0,0,0-18.6,2.34l-.78.6Z" transform="translate(-29.25 -22.32)"/><path class="cls-12" d="M220.32,142.75a12.45,12.45,0,0,1-6.95-2s1.64,3.83,7,3.35Z" transform="translate(-29.25 -22.32)"/><path class="cls-4" d="M222.77,127.47a.76.76,0,0,1-.73.76.72.72,0,0,1-.79-.68.76.76,0,0,1,.73-.77A.73.73,0,0,1,222.77,127.47Z" transform="translate(-29.25 -22.32)"/><path class="cls-4" d="M223.83,126.61c-.09.1-.67-.33-1.48-.32s-1.42.41-1.51.31,0-.23.31-.42a2.12,2.12,0,0,1,1.21-.37,2,2,0,0,1,1.18.38C223.79,126.39,223.88,126.57,223.83,126.61Z" transform="translate(-29.25 -22.32)"/><path class="cls-4" d="M214.5,127.66a.76.76,0,0,1-.73.77.73.73,0,0,1-.78-.69.75.75,0,0,1,.73-.77A.73.73,0,0,1,214.5,127.66Z" transform="translate(-29.25 -22.32)"/><path class="cls-4" d="M215.79,126.76c-.09.1-.67-.32-1.49-.32s-1.42.41-1.51.31.06-.22.32-.41a2.09,2.09,0,0,1,1.21-.38,2,2,0,0,1,1.18.39C215.75,126.54,215.84,126.72,215.79,126.76Z" transform="translate(-29.25 -22.32)"/><path class="cls-4" d="M218.76,132.83a6.14,6.14,0,0,1,1.33-.24c.21,0,.41-.06.44-.2a1.07,1.07,0,0,0-.14-.62c-.19-.51-.4-1-.62-1.59a27.32,27.32,0,0,1-1.39-4.17,25.88,25.88,0,0,1,1.72,4l.6,1.6a1.27,1.27,0,0,1,.1.83.51.51,0,0,1-.34.3,1.63,1.63,0,0,1-.35.05A4.81,4.81,0,0,1,218.76,132.83Z" transform="translate(-29.25 -22.32)"/><path class="cls-4" d="M216.35,133.4c.14,0,.14.88.9,1.51s1.7.53,1.71.66-.21.17-.61.18a2.2,2.2,0,0,1-1.43-.5,1.92,1.92,0,0,1-.69-1.26C216.19,133.61,216.29,133.39,216.35,133.4Z" transform="translate(-29.25 -22.32)"/><path class="cls-4" d="M216,123.56c-.08.22-.9.11-1.86.23s-1.73.38-1.86.18.08-.31.39-.52a3.14,3.14,0,0,1,1.38-.49,3.21,3.21,0,0,1,1.46.17C215.86,123.28,216,123.45,216,123.56Z" transform="translate(-29.25 -22.32)"/><path class="cls-4" d="M223.53,124.24c-.14.19-.71,0-1.38,0s-1.25.12-1.39-.07,0-.28.29-.46a2,2,0,0,1,2.23.07C223.52,124,223.6,124.15,223.53,124.24Z" transform="translate(-29.25 -22.32)"/><path class="cls-11" d="M206.11,127.58c-.09,0-3.66-1.08-3.54,2.56s3.75,2.77,3.75,2.67S206.11,127.58,206.11,127.58Z" transform="translate(-29.25 -22.32)"/><path class="cls-12" d="M205.16,131.46s-.06,0-.16.1a.69.69,0,0,1-.48,0,1.58,1.58,0,0,1-.77-1.39,2.05,2.05,0,0,1,.15-.91.73.73,0,0,1,.46-.5.33.33,0,0,1,.38.16c0,.1,0,.17,0,.18s.08-.06,0-.21a.36.36,0,0,0-.15-.23.46.46,0,0,0-.35-.08.89.89,0,0,0-.65.59,2.24,2.24,0,0,0-.18,1,1.63,1.63,0,0,0,1,1.54.72.72,0,0,0,.58-.11C205.16,131.55,205.18,131.47,205.16,131.46Z" transform="translate(-29.25 -22.32)"/><path class="cls-4" d="M226.88,114.52a5.63,5.63,0,0,0-8.75-1.68,5.5,5.5,0,0,0-9-1.18c-1,1.16-1.55,2.73-2.75,3.7-1,.85-2.44,1.13-3.48,2a4,4,0,0,0,1.44,7,4.3,4.3,0,0,0,2.12,5.86l.53-.22a7.55,7.55,0,0,0,1.1-8.36.59.59,0,0,0,.19,0,4.25,4.25,0,0,0,2.31.53,4.34,4.34,0,0,0,3.24-1.79,4.72,4.72,0,0,0,5.07.21,1.88,1.88,0,0,1,.76-.35,1.86,1.86,0,0,1,1,.29,4.48,4.48,0,0,0,2.58.52,2.48,2.48,0,0,0,1.93-1.39h.06a2.84,2.84,0,0,0,2.13-2.06A4.27,4.27,0,0,0,226.88,114.52Z" transform="translate(-29.25 -22.32)"/><path class="cls-7" d="M235,178.44l.47-24c-4.26-4.19-6.53-5.44-12.46-6.14l-1.62-.18-.51-4-14.54-.82L207,148a36.33,36.33,0,0,0-5.65,1.08c-5.65,1.08-9.71,5.2-10.84,9-.93,3.13-6.91,26.32-6.91,26.32l-1.21,7,13.34-4.84v5l0,18.52h40.52C236.39,205.74,235,178.44,235,178.44Z" transform="translate(-29.25 -22.32)"/><path class="cls-7" d="M188.51,184.78l20-2.84,3.79,6.8-18.56,8.37a8.16,8.16,0,0,1-3.3.71,8,8,0,0,1-7.41-5l-.6-1.46Z" transform="translate(-29.25 -22.32)"/><path class="cls-7" d="M229.31,149.77a14.72,14.72,0,0,1,8,7.35c1.55,3.54,3.82,20.58,3.82,20.58l2.87,5.53a9.3,9.3,0,0,1,1,4.29v.84a9.33,9.33,0,0,1-8.49,9.29c-2.86.25-6.32.37-7.06-.48a35.29,35.29,0,0,1-3.26-5.49l8.34-4.44L231,180.59Z" transform="translate(-29.25 -22.32)"/><path class="cls-4" d="M195.1,196.48a1.65,1.65,0,0,1,.32-.18l1-.47,3.58-1.67,12.24-5.59-.09.25-2.34-4.19-1.45-2.6.17.09-14.62,1.43-4.35.39-1.18.09a1.82,1.82,0,0,1-.41,0,2,2,0,0,1,.4-.08l1.17-.15,4.34-.5,14.62-1.55h.11l.06.1c.47.83,1,1.71,1.46,2.61.8,1.43,1.58,2.84,2.34,4.19l.09.17-.18.08-12.28,5.47L196.43,196l-1,.41A1.7,1.7,0,0,1,195.1,196.48Z" transform="translate(-29.25 -22.32)"/><path class="cls-4" d="M198.64,182.8c.1,0,.19-3.57.19-8s-.09-8-.19-8-.18,3.58-.18,8S198.54,182.8,198.64,182.8Z" transform="translate(-29.25 -22.32)"/><path class="cls-4" d="M233,188.13a2.11,2.11,0,0,1,.61-.09,5.22,5.22,0,0,1,1.69.1,2,2,0,0,1,1.05.6,2.62,2.62,0,0,1,.55,1.27,3,3,0,0,1-.13,1.52,2.92,2.92,0,0,1-1,1.3,7.71,7.71,0,0,1-2.89,1,13.06,13.06,0,0,1-2.48.24,4.67,4.67,0,0,1-2.25-.39,12.18,12.18,0,0,0,2.24.13,14.84,14.84,0,0,0,2.42-.31,7.58,7.58,0,0,0,2.74-1,2.5,2.5,0,0,0,1-2.47,2.54,2.54,0,0,0-.45-1.13,1.74,1.74,0,0,0-.89-.54,6.5,6.5,0,0,0-1.62-.21A1.94,1.94,0,0,1,233,188.13Z" transform="translate(-29.25 -22.32)"/><path class="cls-4" d="M236.33,197.79a4.44,4.44,0,0,1-1.44.17,9.16,9.16,0,0,1-3.45-.58,6.93,6.93,0,0,1-1.71-.91,4.17,4.17,0,0,1-1.07-1.2,3.15,3.15,0,0,1-.51-1.36c.06,0,.25.5.73,1.22a4.22,4.22,0,0,0,1.05,1.07,7.71,7.71,0,0,0,1.65.84,10.77,10.77,0,0,0,3.32.66A7.41,7.41,0,0,1,236.33,197.79Z" transform="translate(-29.25 -22.32)"/><path class="cls-4" d="M240.32,180.49a8.17,8.17,0,0,1-1,1.18c-.64.71-1.54,1.66-2.56,2.7s-2,2-2.63,2.63a7,7,0,0,1-1.17,1,6.32,6.32,0,0,1,1-1.19c.64-.71,1.54-1.67,2.56-2.71A34.31,34.31,0,0,1,240.32,180.49Z" transform="translate(-29.25 -22.32)"/><path class="cls-4" d="M231.22,176.77a29,29,0,0,0,.18-4.56,28.94,28.94,0,0,0-.18-4.56,28.94,28.94,0,0,0-.18,4.56A29,29,0,0,0,231.22,176.77Z" transform="translate(-29.25 -22.32)"/><path class="cls-13" d="M234.2,152.86c0,.1-9,.19-20.07.19s-20.07-.09-20.07-.19,9-.19,20.07-.19S234.2,152.75,234.2,152.86Z" transform="translate(-29.25 -22.32)"/><path class="cls-4" d="M214,148.42a61.72,61.72,0,0,0,6.92-.19A64.72,64.72,0,0,0,214,148a64.72,64.72,0,0,0-6.92.19A61.72,61.72,0,0,0,214,148.42Z" transform="translate(-29.25 -22.32)"/><path class="cls-13" d="M238.56,161c0,.1-10.91.19-24.37.19s-24.38-.09-24.38-.19,10.92-.2,24.38-.2S238.56,160.86,238.56,161Z" transform="translate(-29.25 -22.32)"/><path class="cls-13" d="M240.07,169.3c0,.11-11.8.2-26.34.2s-26.35-.09-26.35-.2,11.8-.19,26.35-.19S240.07,169.2,240.07,169.3Z" transform="translate(-29.25 -22.32)"/><path class="cls-13" d="M241,177.41c0,.11-12.44.19-27.8.19s-27.8-.09-27.8-.19,12.45-.19,27.8-.19S241,177.3,241,177.41Z" transform="translate(-29.25 -22.32)"/><path class="cls-13" d="M162.06,182.8c0,.11-13.83.19-30.89.19s-30.9-.08-30.9-.19,13.83-.19,30.9-.19S162.06,182.7,162.06,182.8Z" transform="translate(-29.25 -22.32)"/><path class="cls-13" d="M235.9,199.87c0,.11-9.13.19-20.38.19s-20.38-.08-20.38-.19,9.12-.19,20.38-.19S235.9,199.77,235.9,199.87Z" transform="translate(-29.25 -22.32)"/><path class="cls-11" d="M226.46,178.67l-.43-.32a10,10,0,0,0-7.86-1.82,13.77,13.77,0,0,0-6.12,2.87l-3.42,2.82,3.64,6.52,2.48-3.47s2.31,3.14,2.72,2.81a5.42,5.42,0,0,0,.91-1.32l-1.65-2.31,4,.82,5.77-2.64L224,179.5l2.47.82Z" transform="translate(-29.25 -22.32)"/><path class="cls-4" d="M220.37,178.07l-12.71,15.39,1,1.06,20.63-3.14L239.49,176l-1-.85Z" transform="translate(-29.25 -22.32)"/><path class="cls-11" d="M233.85,182.13a2,2,0,0,0-1.84,1.26,4.17,4.17,0,0,1-1.25,2,4.46,4.46,0,0,1-3.33.5c-.83-.41-4.16-3.41-4.75-3.08s-1.08,1.08-.5,1.75,3.67,2.67,3.09,3.33-7.09-2.26-8.09-2-1.58.88-1,1.28,5,2.07,5.25,2.65c0,0-6.66-1.75-6.91-1.33s-.67,1.08,0,1.33,6.41,1.75,6.91,2a12.23,12.23,0,0,0,2.57.75c.18,0,1.49.44,2.69.85a5.85,5.85,0,0,0,4.14-.11l.68-.28a2.63,2.63,0,0,0,1.64-2.61l-.14-2.27.73-1.87Z" transform="translate(-29.25 -22.32)"/><path class="cls-5" d="M239.52,176.12a1.16,1.16,0,0,1-.38.1l-1.1.19-4.06.66-6,.92-3.56.54a6.75,6.75,0,0,0-3.45,1.39,23.6,23.6,0,0,0-2.52,2.89l-2.25,2.82c-1.44,1.77-2.74,3.38-3.84,4.75l-2.61,3.18-.72.85c-.17.19-.27.29-.28.28a2.06,2.06,0,0,1,.22-.32c.17-.24.4-.54.67-.9l2.52-3.26,3.77-4.8c.72-.9,1.47-1.84,2.24-2.82a23.08,23.08,0,0,1,2.56-3,7.18,7.18,0,0,1,3.63-1.47l3.57-.52,6.05-.84,4.08-.54,1.11-.13Z" transform="translate(-29.25 -22.32)"/><path class="cls-13" d="M229.88,179.5a1.65,1.65,0,0,0-.58.46.59.59,0,0,0,0,.69.64.64,0,0,0,.85,0,.86.86,0,0,0,.33-.5.57.57,0,0,0-.18-.55.45.45,0,0,0-.56,0" transform="translate(-29.25 -22.32)"/><path class="cls-7" d="M186.42,111l-3.74-6.58a17.59,17.59,0,1,0-4.22,4.7h0Z" transform="translate(-29.25 -22.32)"/><path class="cls-6" d="M169.3,102l0,2.11-1.88,0,0-2.05a8.88,8.88,0,0,1-4.66-1.56l1.07-2.28a7.55,7.55,0,0,0,3.62,1.38l0-3.13c-2.08-.54-4.4-1.26-4.36-4,0-2,1.49-3.68,4.46-4l0-2.09,1.88,0,0,2a8.52,8.52,0,0,1,3.8,1.2l-1,2.3a7.72,7.72,0,0,0-2.86-1l0,3.2c2.08.51,4.36,1.24,4.33,3.88C173.7,100,172.25,101.64,169.3,102Zm-1.77-8.32,0-2.67c-1,.21-1.4.75-1.41,1.37S166.7,93.36,167.53,93.64Zm3.17,4.56c0-.65-.53-1-1.34-1.31l0,2.59C170.27,99.29,170.69,98.8,170.7,98.2Z" transform="translate(-29.25 -22.32)"/></svg>