<svg id="Capa_1" data-name="Capa 1" xmlns="http://www.w3.org/2000/svg" viewBox="0 0 485.36 374.57"><defs><style>.cls-1{fill:#f5f5f5;}.cls-2{fill:#263238;}.cls-12,.cls-3,.cls-4,.cls-9{opacity:0.2;}.cls-4,.cls-7,.cls-8{fill:#fff;}.cls-12,.cls-4,.cls-7,.cls-9{isolation:isolate;}.cls-5{fill:#ff1713;}.cls-6,.cls-7{opacity:0.6;}.cls-10{fill:#71b219;}.cls-11{fill:#890a0a;}.cls-12{fill:#ad0202;}.cls-13{fill:#e4897b;}.cls-14{fill:#2e353a;}.cls-15{fill:#de5753;}</style></defs><title>trading4</title><path class="cls-1" d="M256.5,409c133.93,0,242.5-5.57,242.5-12.43s-108.57-12.43-242.5-12.43S14,389.71,14,396.57,122.57,409,256.5,409Z" transform="translate(-14 -34.43)"/><path class="cls-2" d="M339.14,234.58H151.47a2.78,2.78,0,0,1-2.79-2.79v-149A2.79,2.79,0,0,1,151.47,80H339.14a2.79,2.79,0,0,1,2.79,2.79v149A2.78,2.78,0,0,1,339.14,234.58Z" transform="translate(-14 -34.43)"/><g class="cls-3"><g class="cls-3"><path class="cls-4" d="M325,214.1H173.48v1.09H325Z" transform="translate(-14 -34.43)"/></g><g class="cls-3"><path class="cls-4" d="M325,208.61H173.48v1.1H325Z" transform="translate(-14 -34.43)"/></g><g class="cls-3"><path class="cls-4" d="M325,203.12H173.48v1.1H325Z" transform="translate(-14 -34.43)"/></g><g class="cls-3"><path class="cls-4" d="M325,197.63H173.48v1.1H325Z" transform="translate(-14 -34.43)"/></g><g class="cls-3"><path class="cls-4" d="M325,192.14H173.48v1.1H325Z" transform="translate(-14 -34.43)"/></g><g class="cls-3"><path class="cls-4" d="M325,186.65H173.48v1.1H325Z" transform="translate(-14 -34.43)"/></g><g class="cls-3"><path class="cls-4" d="M325,181.17H173.48v1.09H325Z" transform="translate(-14 -34.43)"/></g><g class="cls-3"><path class="cls-4" d="M325,175.68H173.48v1.1H325Z" transform="translate(-14 -34.43)"/></g><g class="cls-3"><path class="cls-4" d="M325,170.19H173.48v1.1H325Z" transform="translate(-14 -34.43)"/></g><g class="cls-3"><path class="cls-4" d="M325,164.7H173.48v1.1H325Z" transform="translate(-14 -34.43)"/></g><g class="cls-3"><path class="cls-4" d="M325,159.21H173.48v1.1H325Z" transform="translate(-14 -34.43)"/></g><g class="cls-3"><path class="cls-4" d="M325,153.73H173.48v1.09H325Z" transform="translate(-14 -34.43)"/></g><g class="cls-3"><path class="cls-4" d="M325,148.24H173.48v1.09H325Z" transform="translate(-14 -34.43)"/></g><g class="cls-3"><path class="cls-4" d="M325,142.75H173.48v1.1H325Z" transform="translate(-14 -34.43)"/></g><g class="cls-3"><path class="cls-4" d="M325,137.26H173.48v1.1H325Z" transform="translate(-14 -34.43)"/></g><g class="cls-3"><path class="cls-4" d="M325,131.77H173.48v1.1H325Z" transform="translate(-14 -34.43)"/></g><g class="cls-3"><path class="cls-4" d="M325,126.28H173.48v1.1H325Z" transform="translate(-14 -34.43)"/></g><g class="cls-3"><path class="cls-4" d="M325,120.79H173.48v1.1H325Z" transform="translate(-14 -34.43)"/></g><g class="cls-3"><path class="cls-4" d="M325,115.31H173.48v1.09H325Z" transform="translate(-14 -34.43)"/></g><g class="cls-3"><path class="cls-4" d="M325,109.82H173.48v1.1H325Z" transform="translate(-14 -34.43)"/></g></g><path class="cls-5" d="M187.77,204.24h-9.15v10.95h9.15Z" transform="translate(-14 -34.43)"/><path class="cls-5" d="M204.24,171.29h-9.15v43.9h9.15Z" transform="translate(-14 -34.43)"/><path class="cls-5" d="M220.71,149.32h-9.15v65.87h9.15Z" transform="translate(-14 -34.43)"/><path class="cls-5" d="M237.18,155.91H228v59.28h9.15Z" transform="translate(-14 -34.43)"/><path class="cls-5" d="M253.65,171.29H244.5v43.9h9.15Z" transform="translate(-14 -34.43)"/><path class="cls-5" d="M270.12,149.32H261v65.87h9.15Z" transform="translate(-14 -34.43)"/><path class="cls-5" d="M286.59,127.35h-9.15v87.84h9.15Z" transform="translate(-14 -34.43)"/><path class="cls-5" d="M303.06,121.86h-9.15v93.33h9.15Z" transform="translate(-14 -34.43)"/><path class="cls-5" d="M319.53,171.29h-9.15v43.9h9.15Z" transform="translate(-14 -34.43)"/><g class="cls-6"><path class="cls-7" d="M187.77,208.23h-9.15v7h9.15Z" transform="translate(-14 -34.43)"/><path class="cls-7" d="M204.24,187.3h-9.15v27.89h9.15Z" transform="translate(-14 -34.43)"/><path class="cls-7" d="M220.71,173.35h-9.15v41.84h9.15Z" transform="translate(-14 -34.43)"/><path class="cls-7" d="M237.18,177.54H228v37.65h9.15Z" transform="translate(-14 -34.43)"/><path class="cls-7" d="M253.65,187.3H244.5v27.89h9.15Z" transform="translate(-14 -34.43)"/><path class="cls-7" d="M270.12,173.35H261v41.84h9.15Z" transform="translate(-14 -34.43)"/><path class="cls-7" d="M286.59,159.4h-9.15v55.79h9.15Z" transform="translate(-14 -34.43)"/><path class="cls-7" d="M303.06,155.91h-9.15v59.28h9.15Z" transform="translate(-14 -34.43)"/><path class="cls-7" d="M319.53,187.3h-9.15v27.89h9.15Z" transform="translate(-14 -34.43)"/></g><path class="cls-8" d="M187.77,209.58h-9.15v5.61h9.15Z" transform="translate(-14 -34.43)"/><path class="cls-8" d="M204.24,192.69h-9.15v22.5h9.15Z" transform="translate(-14 -34.43)"/><path class="cls-8" d="M220.71,181.43h-9.15v33.76h9.15Z" transform="translate(-14 -34.43)"/><path class="cls-8" d="M237.18,184.8H228v30.39h9.15Z" transform="translate(-14 -34.43)"/><path class="cls-8" d="M253.65,192.69H244.5v22.5h9.15Z" transform="translate(-14 -34.43)"/><path class="cls-8" d="M270.12,181.43H261v33.76h9.15Z" transform="translate(-14 -34.43)"/><path class="cls-8" d="M286.59,170.17h-9.15v45h9.15Z" transform="translate(-14 -34.43)"/><path class="cls-8" d="M303.06,167.35h-9.15v47.84h9.15Z" transform="translate(-14 -34.43)"/><path class="cls-8" d="M319.53,192.69h-9.15v22.5h9.15Z" transform="translate(-14 -34.43)"/><g class="cls-3"><path class="cls-4" d="M167,212.38h2.68a1.41,1.41,0,1,1,0,2.81H167a1.41,1.41,0,0,1,0-2.81Z" transform="translate(-14 -34.43)"/><path class="cls-4" d="M167,206.9h2.68a1.41,1.41,0,1,1,0,2.81H167a1.41,1.41,0,0,1,0-2.81Z" transform="translate(-14 -34.43)"/><path class="cls-4" d="M167,201.41h2.68a1.41,1.41,0,1,1,0,2.81H167a1.41,1.41,0,0,1,0-2.81Z" transform="translate(-14 -34.43)"/><path class="cls-4" d="M167,195.92h2.68a1.41,1.41,0,1,1,0,2.81H167a1.41,1.41,0,0,1,0-2.81Z" transform="translate(-14 -34.43)"/><path class="cls-4" d="M167,190.43h2.68a1.41,1.41,0,1,1,0,2.81H167a1.41,1.41,0,0,1,0-2.81Z" transform="translate(-14 -34.43)"/><path class="cls-4" d="M167,184.94h2.68a1.41,1.41,0,1,1,0,2.81H167a1.41,1.41,0,0,1,0-2.81Z" transform="translate(-14 -34.43)"/><path class="cls-4" d="M167,179.46h2.68a1.4,1.4,0,1,1,0,2.8H167a1.4,1.4,0,0,1,0-2.8Z" transform="translate(-14 -34.43)"/><path class="cls-4" d="M167,174h2.68a1.4,1.4,0,1,1,0,2.8H167a1.4,1.4,0,1,1,0-2.8Z" transform="translate(-14 -34.43)"/><path class="cls-4" d="M167,168.48h2.68a1.41,1.41,0,1,1,0,2.81H167a1.41,1.41,0,0,1,0-2.81Z" transform="translate(-14 -34.43)"/><path class="cls-4" d="M167,163h2.68a1.41,1.41,0,1,1,0,2.81H167a1.41,1.41,0,0,1,0-2.81Z" transform="translate(-14 -34.43)"/><path class="cls-4" d="M167,157.5h2.68a1.41,1.41,0,1,1,0,2.81H167a1.41,1.41,0,0,1,0-2.81Z" transform="translate(-14 -34.43)"/><path class="cls-4" d="M167,152h2.68a1.41,1.41,0,1,1,0,2.81H167a1.41,1.41,0,0,1,0-2.81Z" transform="translate(-14 -34.43)"/><path class="cls-4" d="M167,146.52h2.68a1.41,1.41,0,1,1,0,2.81H167a1.41,1.41,0,0,1,0-2.81Z" transform="translate(-14 -34.43)"/><path class="cls-4" d="M167,141h2.68a1.41,1.41,0,1,1,0,2.81H167a1.41,1.41,0,0,1,0-2.81Z" transform="translate(-14 -34.43)"/><path class="cls-4" d="M167,135.55h2.68a1.41,1.41,0,1,1,0,2.81H167a1.41,1.41,0,0,1,0-2.81Z" transform="translate(-14 -34.43)"/><path class="cls-4" d="M167,130.06h2.68a1.41,1.41,0,1,1,0,2.81H167a1.41,1.41,0,0,1,0-2.81Z" transform="translate(-14 -34.43)"/><path class="cls-4" d="M167,124.57h2.68a1.41,1.41,0,1,1,0,2.81H167a1.41,1.41,0,0,1,0-2.81Z" transform="translate(-14 -34.43)"/><path class="cls-4" d="M167,119.08h2.68a1.41,1.41,0,1,1,0,2.81H167a1.41,1.41,0,0,1,0-2.81Z" transform="translate(-14 -34.43)"/><path class="cls-4" d="M167,113.6h2.68a1.4,1.4,0,1,1,0,2.8H167a1.4,1.4,0,1,1,0-2.8Z" transform="translate(-14 -34.43)"/><path class="cls-4" d="M167,108.11h2.68a1.41,1.41,0,1,1,0,2.81H167a1.41,1.41,0,0,1,0-2.81Z" transform="translate(-14 -34.43)"/></g><path class="cls-8" d="M181.85,217.94h2.68a1.41,1.41,0,1,1,0,2.81h-2.68a1.41,1.41,0,0,1,0-2.81Z" transform="translate(-14 -34.43)"/><path class="cls-8" d="M198.32,217.94H201a1.41,1.41,0,1,1,0,2.81h-2.68a1.41,1.41,0,0,1,0-2.81Z" transform="translate(-14 -34.43)"/><path class="cls-8" d="M214.79,217.94h2.68a1.41,1.41,0,1,1,0,2.81h-2.68a1.41,1.41,0,0,1,0-2.81Z" transform="translate(-14 -34.43)"/><path class="cls-8" d="M231.26,217.94h2.68a1.41,1.41,0,1,1,0,2.81h-2.68a1.41,1.41,0,0,1,0-2.81Z" transform="translate(-14 -34.43)"/><path class="cls-8" d="M247.73,217.94h2.68a1.41,1.41,0,1,1,0,2.81h-2.68a1.41,1.41,0,0,1,0-2.81Z" transform="translate(-14 -34.43)"/><path class="cls-8" d="M264.2,217.94h2.68a1.41,1.41,0,1,1,0,2.81H264.2a1.41,1.41,0,0,1,0-2.81Z" transform="translate(-14 -34.43)"/><path class="cls-8" d="M280.67,217.94h2.68a1.41,1.41,0,1,1,0,2.81h-2.68a1.41,1.41,0,0,1,0-2.81Z" transform="translate(-14 -34.43)"/><path class="cls-8" d="M297.14,217.94h2.68a1.41,1.41,0,1,1,0,2.81h-2.68a1.41,1.41,0,0,1,0-2.81Z" transform="translate(-14 -34.43)"/><path class="cls-8" d="M313.61,217.94h2.68a1.41,1.41,0,1,1,0,2.81h-2.68a1.41,1.41,0,0,1,0-2.81Z" transform="translate(-14 -34.43)"/><path class="cls-4" d="M288.8,95.61h-87a2.35,2.35,0,1,1,0-4.7h87a2.35,2.35,0,0,1,0,4.7Z" transform="translate(-14 -34.43)"/><g class="cls-3"><path class="cls-9" d="M285,107.62h56.46V82.78c0-1.54-.8-2.6-2.34-2.6H282.19v24.17C282.19,105.89,283.48,107.62,285,107.62Z" transform="translate(-14 -34.43)"/><path class="cls-9" d="M341.48,231.79v-16.6H274.39a3.22,3.22,0,0,0-3.18,2.87V235h67.93C340.68,235,341.48,233.34,341.48,231.79Z" transform="translate(-14 -34.43)"/></g><path class="cls-2" d="M385.7,326.28H287a2.79,2.79,0,0,1-2.79-2.79v-94.1A2.79,2.79,0,0,1,287,226.6H385.7a2.79,2.79,0,0,1,2.79,2.79v94.1A2.79,2.79,0,0,1,385.7,326.28Z" transform="translate(-14 -34.43)"/><path class="cls-5" d="M327.31,314.79a28.64,28.64,0,1,0-28.64-28.64A28.64,28.64,0,0,0,327.31,314.79Z" transform="translate(-14 -34.43)"/><path class="cls-4" d="M327.31,286.15l22.86-17.24a28.64,28.64,0,1,1-32.3-9.79Z" transform="translate(-14 -34.43)"/><path class="cls-8" d="M327.31,286.15l22.19-18.1a28.64,28.64,0,1,1-45.36,1.27Z" transform="translate(-14 -34.43)"/><path class="cls-5" d="M372.58,272.08h-6.22a1.47,1.47,0,0,1-1.47-1.48v-6.21a1.47,1.47,0,0,1,1.47-1.47h6.22a1.48,1.48,0,0,1,1.48,1.47v6.21A1.48,1.48,0,0,1,372.58,272.08Z" transform="translate(-14 -34.43)"/><path class="cls-10" d="M372.58,289.85h-6.22a1.47,1.47,0,0,1-1.47-1.48v-6.2a1.48,1.48,0,0,1,1.47-1.49h6.22a1.49,1.49,0,0,1,1.48,1.49v6.2A1.48,1.48,0,0,1,372.58,289.85Z" transform="translate(-14 -34.43)"/><path class="cls-8" d="M372.58,307.62h-6.22a1.47,1.47,0,0,1-1.47-1.48v-6.21a1.48,1.48,0,0,1,1.47-1.48h6.22a1.49,1.49,0,0,1,1.48,1.48v6.21A1.48,1.48,0,0,1,372.58,307.62Z" transform="translate(-14 -34.43)"/><path class="cls-5" d="M372.58,289.85h-6.22a1.47,1.47,0,0,1-1.47-1.48v-6.2a1.48,1.48,0,0,1,1.47-1.49h6.22a1.49,1.49,0,0,1,1.48,1.49v6.2A1.48,1.48,0,0,1,372.58,289.85Z" transform="translate(-14 -34.43)"/><path class="cls-4" d="M370.52,243H302.2a2.36,2.36,0,0,1,0-4.71h68.32a2.36,2.36,0,1,1,0,4.71Z" transform="translate(-14 -34.43)"/><path class="cls-2" d="M370.87,94.56h-69a2.79,2.79,0,0,1-2.79-2.79V37.22a2.79,2.79,0,0,1,2.79-2.79h69a2.79,2.79,0,0,1,2.79,2.79V91.77A2.79,2.79,0,0,1,370.87,94.56Z" transform="translate(-14 -34.43)"/><g class="cls-3"><g class="cls-3"><path class="cls-4" d="M366.73,86.77H306.34v1.1h60.39Z" transform="translate(-14 -34.43)"/></g><g class="cls-3"><path class="cls-4" d="M366.73,81.28H306.34v1.1h60.39Z" transform="translate(-14 -34.43)"/></g><g class="cls-3"><path class="cls-4" d="M366.73,75.79H306.34v1.1h60.39Z" transform="translate(-14 -34.43)"/></g><g class="cls-3"><path class="cls-4" d="M366.73,70.3H306.34v1.1h60.39Z" transform="translate(-14 -34.43)"/></g><g class="cls-3"><path class="cls-4" d="M366.73,64.81H306.34v1.1h60.39Z" transform="translate(-14 -34.43)"/></g><g class="cls-3"><path class="cls-4" d="M366.73,59.33H306.34v1.09h60.39Z" transform="translate(-14 -34.43)"/></g><g class="cls-3"><path class="cls-4" d="M366.73,53.84H306.34v1.1h60.39Z" transform="translate(-14 -34.43)"/></g></g><path class="cls-11" d="M306.19,87.87v-11l4.33-4.33a3.18,3.18,0,0,1,4.51,0,3.2,3.2,0,0,0,4.39.12A8.3,8.3,0,0,1,329.7,72L331,73a10.35,10.35,0,0,0,13.48-1.47l3-3.23a5.32,5.32,0,0,1,7.22-.54,5.3,5.3,0,0,0,6.8-.14l5.08-4.41v24.7Z" transform="translate(-14 -34.43)"/><path class="cls-12" d="M306.34,88.14v-11l4.34-4.33a3.2,3.2,0,0,1,4.51,0,3.18,3.18,0,0,0,4.38.12,8.3,8.3,0,0,1,10.28-.64l1.32.92a10.35,10.35,0,0,0,13.48-1.47l3-3.23a5.31,5.31,0,0,1,7.21-.54,5.3,5.3,0,0,0,6.81-.14l5.07-4.41v24.7Z" transform="translate(-14 -34.43)"/><path class="cls-5" d="M306.34,84.85l11-10.4a3.4,3.4,0,0,1,4.93.22,3.4,3.4,0,0,0,4.9.26l5.16-4.84a6.44,6.44,0,0,1,8.3-.42,6.44,6.44,0,0,0,8.42-.53l.26-.26a3.41,3.41,0,0,1,4.74,0,4,4,0,0,0,5.33.24l7.36-5.71V84.85Z" transform="translate(-14 -34.43)"/><path class="cls-4" d="M353.49,46.36H319.24a2.36,2.36,0,1,1,0-4.71h34.25a2.36,2.36,0,1,1,0,4.71Z" transform="translate(-14 -34.43)"/><path class="cls-13" d="M362,134.88l-10.8-7.5s-1.65-5.92-2.38-6.53-10.62-4.26-11.9-3.71-1.09,11.84,0,12.14,10.07,3,10.07,3l11.53,9.33Z" transform="translate(-14 -34.43)"/><path class="cls-8" d="M429,137.26s-.48.45-1.28,1.25c-1.89,1.84-6.13,5.57-10.52,9.55h0c-8.78,7.2-19.62,15.25-26.38,14.63-12.08-1.09-38.44-22.49-38.44-22.49l5-9.11s19.22,12.75,30.75,15.42,30.2-31.76,39.16-34.17Z" transform="translate(-14 -34.43)"/><path class="cls-2" d="M359.4,130.72l-6,12-2.19-3.29,5.12-10.18Z" transform="translate(-14 -34.43)"/><path class="cls-9" d="M427.78,138.51c-1.89,1.84-5.78,5.57-10.48,9.55,2.13-9.72,8.9-17.75,8.9-17.75Z" transform="translate(-14 -34.43)"/><path class="cls-13" d="M428.74,387.56l-8.91.94-1.67-19.21,8.91-.94Z" transform="translate(-14 -34.43)"/><path class="cls-13" d="M473.18,386.91h-8.63l-.71-20h8.64Z" transform="translate(-14 -34.43)"/><path class="cls-14" d="M463.36,385.91h10.48a.76.76,0,0,1,.74.59l1.7,7.69a1.27,1.27,0,0,1-1,1.51.88.88,0,0,1-.28,0c-3.39-.05-5.87-.26-10.13-.26-2.62,0-10.54.27-14.16.27s-4.09-3.57-2.61-3.9c6.65-1.45,11.66-3.46,13.79-5.37A2.08,2.08,0,0,1,463.36,385.91Z" transform="translate(-14 -34.43)"/><path class="cls-5" d="M460.5,387.43a2.61,2.61,0,0,1-1.65-.44,1.2,1.2,0,0,1-.43-1.1.6.6,0,0,1,.35-.57c1-.5,3.74,1.22,4.05,1.41a.2.2,0,0,1,.1.2.22.22,0,0,1-.15.18A10.9,10.9,0,0,1,460.5,387.43Zm-1.28-1.79a.52.52,0,0,0-.27.05c-.05,0-.12.08-.13.24a.86.86,0,0,0,.28.74,4.18,4.18,0,0,0,3.07.15A8.31,8.31,0,0,0,459.22,385.64Z" transform="translate(-14 -34.43)"/><path class="cls-5" d="M462.71,387.12h-.1c-.89-.48-2.61-2.38-2.44-3.29a.67.67,0,0,1,.66-.54,1.1,1.1,0,0,1,.87.26c1,.81,1.21,3.29,1.22,3.41a.23.23,0,0,1-.1.19A.2.2,0,0,1,462.71,387.12Zm-1.73-3.5h-.1c-.27,0-.29.15-.3.21-.11.56,1,2,1.88,2.66a4.93,4.93,0,0,0-1-2.7A.71.71,0,0,0,461,383.62Z" transform="translate(-14 -34.43)"/><path class="cls-14" d="M418.89,385.64h10.49a.75.75,0,0,1,.73.59l1.7,7.68a1.26,1.26,0,0,1-1,1.51,1.33,1.33,0,0,1-.28,0c-3.39-.06-5.86-.26-10.12-.26-2.63,0-10.54.27-14.17.27s-4.09-3.58-2.61-3.91c6.65-1.45,11.66-3.45,13.79-5.37A2.07,2.07,0,0,1,418.89,385.64Z" transform="translate(-14 -34.43)"/><path class="cls-5" d="M416,387.15a2.55,2.55,0,0,1-1.65-.44,1.18,1.18,0,0,1-.43-1.1.61.61,0,0,1,.35-.57c1-.49,3.74,1.22,4.05,1.42a.2.2,0,0,1-.05.37A10.19,10.19,0,0,1,416,387.15Zm-1.28-1.79a.4.4,0,0,0-.26.06c-.06,0-.13.07-.14.24a.84.84,0,0,0,.28.73,4.18,4.18,0,0,0,3.07.16A8.52,8.52,0,0,0,414.75,385.36Z" transform="translate(-14 -34.43)"/><path class="cls-5" d="M418.24,386.84h-.1c-.89-.48-2.61-2.38-2.44-3.29a.68.68,0,0,1,.66-.54,1.1,1.1,0,0,1,.87.27c1,.81,1.21,3.29,1.22,3.41a.24.24,0,0,1-.1.19A.15.15,0,0,1,418.24,386.84Zm-1.73-3.5h-.1c-.27,0-.29.16-.3.21-.11.56,1,2,1.88,2.67a4.8,4.8,0,0,0-1-2.7A.72.72,0,0,0,416.51,383.34Z" transform="translate(-14 -34.43)"/><path class="cls-9" d="M427.07,368.35l-8.91.94.87,9.91,8.91-.94Z" transform="translate(-14 -34.43)"/><path class="cls-9" d="M472.48,366.93h-8.64l.37,10.31h8.65Z" transform="translate(-14 -34.43)"/><path class="cls-2" d="M468.92,191.59H423.11c-4.36,23.78-18,107.93-8.21,182.91l15.51-1.93S429,273,442.67,236.24c1.57,19.7,3.44,40.65,5.06,51.8,4,27.44,12.52,87.41,12.52,87.41H476s-3.23-57.4-4.72-84.37C469.69,261.8,469,197.61,468.92,191.59Z" transform="translate(-14 -34.43)"/><path class="cls-9" d="M442.66,236.25a122.91,122.91,0,0,0-5.12,19.81c-1.28-17.52,3.85-36.11,3.85-36.11Z" transform="translate(-14 -34.43)"/><path class="cls-10" d="M413.12,378.11l19.2-2.86-.59-5.31-20,2.62Z" transform="translate(-14 -34.43)"/><path class="cls-8" d="M413.12,378.11l19.2-2.86-.59-5.31-20,2.62Z" transform="translate(-14 -34.43)"/><path class="cls-10" d="M458.35,375.58H477V370l-19.32-.37Z" transform="translate(-14 -34.43)"/><path class="cls-8" d="M458.35,375.58H477V370l-19.32-.37Z" transform="translate(-14 -34.43)"/><path class="cls-2" d="M422.72,192.14h46.12v5.49l-46.71-.56Z" transform="translate(-14 -34.43)"/><path class="cls-5" d="M454,189.67h-1.64v9.74H454Z" transform="translate(-14 -34.43)"/><path class="cls-5" d="M430.68,189.67H429v9.74h1.65Z" transform="translate(-14 -34.43)"/><path class="cls-8" d="M443.74,191.18h-8.53v6.15h8.53Z" transform="translate(-14 -34.43)"/><path class="cls-8" d="M427.29,112.35s29.14-1.37,50.85,4.11c0,0-9.59,48.24-9.22,75.68h-46.2S419.72,140.68,427.29,112.35Z" transform="translate(-14 -34.43)"/><path class="cls-5" d="M442.51,116.05l1.23,6s-7,29.27-8.53,44.45l2.56,2.56,4-2.56s.36-30.92,3.91-43.9l6.37-5.22-5-1.62Z" transform="translate(-14 -34.43)"/><path class="cls-14" d="M436.24,73.05s-1.81,11.89,4.51,16.46S447.06,72,447.06,72Z" transform="translate(-14 -34.43)"/><path class="cls-13" d="M461.57,113.39c-4.21,3.82-14.51,2.4-14.51,2.4S440.63,114,442,112c3.79-.62,5.62-2.39,6.38-4.65a11,11,0,0,0,.38-4.33,19.89,19.89,0,0,0-.32-2.41l12.74-9.43C459.49,97.43,457.45,108.87,461.57,113.39Z" transform="translate(-14 -34.43)"/><path class="cls-9" d="M458.22,97.2c-.51,7.63-6.79,9.74-9.86,10.17a11,11,0,0,0,.38-4.32Z" transform="translate(-14 -34.43)"/><path class="cls-13" d="M459.08,99a10.79,10.79,0,0,1-12.4,4.18,12.17,12.17,0,0,1-7.43-6.72c-3.11-7.27-4.1-20,3.59-24.75A11.68,11.68,0,0,1,459,75.34a11.56,11.56,0,0,1,1.76,5.15C461.66,89,462.61,93.93,459.08,99Z" transform="translate(-14 -34.43)"/><path class="cls-14" d="M448.32,85c.17.67-.14,1.3-.6,1.38s-.9-.43-1-1.11.15-1.3.6-1.38S448.2,84.34,448.32,85Z" transform="translate(-14 -34.43)"/><path class="cls-14" d="M440.57,86.35c.16.67-.16,1.31-.61,1.38s-.9-.42-1-1.11.15-1.3.6-1.37S440.45,85.7,440.57,86.35Z" transform="translate(-14 -34.43)"/><path class="cls-15" d="M443.09,86.27a24.89,24.89,0,0,1-2.28,6.43,4,4,0,0,0,3.4,0Z" transform="translate(-14 -34.43)"/><path class="cls-14" d="M450.3,82.11a.46.46,0,0,1-.42-.09,3.28,3.28,0,0,0-2.81-.91.41.41,0,0,1-.49-.3.4.4,0,0,1,.3-.49h0a4.08,4.08,0,0,1,3.56,1.1.4.4,0,0,1,0,.57h0Z" transform="translate(-14 -34.43)"/><path class="cls-14" d="M445.94,96.11A6.28,6.28,0,0,0,451,93.35a.21.21,0,0,0-.08-.3.22.22,0,0,0-.29.06v0a6,6,0,0,1-4.74,2.54.22.22,0,0,0-.21.21v0a.21.21,0,0,0,.21.21Z" transform="translate(-14 -34.43)"/><path class="cls-14" d="M436.77,84.25a.46.46,0,0,1-.23.06.4.4,0,0,1-.28-.5h0A4,4,0,0,1,438.77,81a.4.4,0,0,1,.51.27h0a.42.42,0,0,1-.27.51,3.28,3.28,0,0,0-2,2.21A.44.44,0,0,1,436.77,84.25Z" transform="translate(-14 -34.43)"/><path class="cls-14" d="M452.73,71v3.8a2.8,2.8,0,0,1,1.83,3.34c-.82,3.29,1.56,8,4.21,9.6,0,0-.09-1.37,1.1-1.19s1.74,7.32-.09,11c0,0,3-3.47,4-11.16.94-7.1.46-12.87-1.29-15.37Z" transform="translate(-14 -34.43)"/><path class="cls-14" d="M462.51,72.13s2.85-6.4-7.77-7.86S433,67,433,67s-.55,10.16,8.43,10.06C450.18,77,462.51,72.13,462.51,72.13Z" transform="translate(-14 -34.43)"/><path class="cls-13" d="M465.57,86.77a8.18,8.18,0,0,1-3.9,4.84c-2.51,1.35-4.39-.75-4.22-3.45.17-2.4,1.66-6.06,4.45-6.27S466.29,84.22,465.57,86.77Z" transform="translate(-14 -34.43)"/><path class="cls-10" d="M459.69,108.54,447.52,114l-.72-4.4-4.47,1.57a3.68,3.68,0,0,0-2.44,3.85l.5,4.83,6.18-3.38,3.08,4.35,14.62-7Z" transform="translate(-14 -34.43)"/><path class="cls-2" d="M459.69,108.54,447.52,114l-.72-4.4-4.47,1.57a3.68,3.68,0,0,0-2.44,3.85l.5,4.83,6.18-3.38,3.08,4.35,14.62-7Z" transform="translate(-14 -34.43)"/><path class="cls-9" d="M474.14,139.16c-.77,4.86-1.57,10.21-2.31,15.72-5-9.54-.9-18.87-.9-18.87Z" transform="translate(-14 -34.43)"/><path class="cls-8" d="M478.14,116.46c5.25,2.41,22.29,36.61,21.17,55.91-1.1,18.81-30.47,42.28-30.47,42.28s-6.36-5.16-7.25-9.6c0,0,20.7-21.44,21.25-32.68.54-11-11.53-30.72-11.53-30.72s-1.38-8.23,1.09-15.37S478.14,116.46,478.14,116.46Z" transform="translate(-14 -34.43)"/><path class="cls-2" d="M461.59,200.49s4.78,10.73,8.76,12.9c0,0,.86,3.63-2.61,8.57S450.87,209.93,461.59,200.49Z" transform="translate(-14 -34.43)"/><path class="cls-13" d="M99.78,387.56l8.91.94,1.67-19.21-8.91-.94Z" transform="translate(-14 -34.43)"/><path class="cls-13" d="M55.34,386.91H64l.71-20H56Z" transform="translate(-14 -34.43)"/><path class="cls-14" d="M65.16,385.91H54.68a.76.76,0,0,0-.74.59l-1.7,7.69a1.27,1.27,0,0,0,1,1.51.88.88,0,0,0,.28,0c3.4-.05,5.87-.26,10.13-.26,2.62,0,10.54.27,14.16.27s4.1-3.57,2.61-3.9c-6.65-1.45-11.66-3.46-13.79-5.37A2.08,2.08,0,0,0,65.16,385.91Z" transform="translate(-14 -34.43)"/><path class="cls-14" d="M109.63,385.64H99.15a.75.75,0,0,0-.74.59l-1.7,7.68a1.26,1.26,0,0,0,1,1.51,1.33,1.33,0,0,0,.28,0c3.39-.06,5.86-.26,10.13-.26,2.62,0,10.54.27,14.16.27s4.09-3.58,2.61-3.91c-6.65-1.45-11.66-3.45-13.79-5.37A2.07,2.07,0,0,0,109.63,385.64Z" transform="translate(-14 -34.43)"/><path class="cls-2" d="M111.18,382H98.51s1-109-12.66-145.74c-1,12.16-2,24.78-3.11,35.3-.67,6.5-1.33,12.1-2,16.35-4,27.45-14,95.19-14,95.19H54.23s1.48-64.91,3-91.88c1.63-29.28,2.34-93.63,2.4-99.12h45.81C109.77,215.19,121,307.4,111.18,382Z" transform="translate(-14 -34.43)"/><path class="cls-13" d="M99.39,124,89.06,107.17a7.28,7.28,0,0,1-4.26-2.73c-1.59-2.25-2.59-11-1.84-11.35s8.77.55,9.33,1.63,2.14,10,2.14,10l11.91,13.94Z" transform="translate(-14 -34.43)"/><path class="cls-9" d="M99.39,124,89.06,107.17a7.28,7.28,0,0,1-4.26-2.73c-1.59-2.25-2.59-11-1.84-11.35s8.77.55,9.33,1.63,2.14,10,2.14,10l11.91,13.94Z" transform="translate(-14 -34.43)"/><path class="cls-10" d="M102.28,110.16l-2.66-2.67-8.87,6.58.84,3.43Z" transform="translate(-14 -34.43)"/><path class="cls-7" d="M102.28,110.16l-2.66-2.67-8.87,6.58.84,3.43Z" transform="translate(-14 -34.43)"/><path class="cls-8" d="M95.32,113.65l7-4.29s19.79,26.71,22.15,40-24.26-15.45-24.26-15.45Z" transform="translate(-14 -34.43)"/><path class="cls-8" d="M51.81,116.5s-4.15,2.36-4.75,13.9c-.55,10.4,2.81,32.54,9.33,37.38,10.43,7.73,48.31-2.93,48.31-2.93l-1.46-11.17s-28.68,3.8-35.51,0-8.87-23.28-8.87-23.28S56,117.7,51.81,116.5Z" transform="translate(-14 -34.43)"/><path class="cls-13" d="M89.28,96.42c-.18.39-.36.77-.57,1.14a12,12,0,0,1-5.16,4.89A10.88,10.88,0,0,1,69.45,99c-3.53-5-2.58-10-1.64-18.47a11.72,11.72,0,0,1,17.88-8.82C93.38,76.44,92.39,89.15,89.28,96.42Z" transform="translate(-14 -34.43)"/><path class="cls-9" d="M83.55,102.45a11.29,11.29,0,0,1-11-.46,13,13,0,0,1,2-2.6A16.89,16.89,0,0,1,83.55,102.45Z" transform="translate(-14 -34.43)"/><path class="cls-13" d="M67,113.39c4.21,3.82,14.51,2.4,14.51,2.4S87.89,114,86.54,112c-3.79-.62-5.62-2.39-6.38-4.65a11,11,0,0,1-.38-4.33,19.89,19.89,0,0,1,.32-2.41L67.36,91.2C69,97.43,71.07,108.87,67,113.39Z" transform="translate(-14 -34.43)"/><path class="cls-14" d="M88.09,77.8s2.38,8-5.86,13.81c0,0-3.46,7.41-5.39,8.33s-6.29.36-7.77,0S60,93.26,62.19,78.44,76.84,68.31,76.84,68.31s4.25-3.68,12.16.89C95.6,73,94.31,80.18,88.09,77.8Z" transform="translate(-14 -34.43)"/><path class="cls-13" d="M81.11,87.77A5.6,5.6,0,0,0,83.28,92c1.59,1,3.13-1.21,3.31-3.78.14-2.28-.48-5.64-2.39-5.53S80.9,85.41,81.11,87.77Z" transform="translate(-14 -34.43)"/><path class="cls-10" d="M67,110.64l1.28-4.94s12.6-1.68,18.38,3.89l-1.5,5.85Z" transform="translate(-14 -34.43)"/><path class="cls-7" d="M67,110.64l1.28-4.94s12.6-1.68,18.38,3.89l-1.5,5.85Z" transform="translate(-14 -34.43)"/><path class="cls-8" d="M63.27,114l3.68-5.8s15.75-3.87,23.2,5.47S63.27,114,63.27,114Z" transform="translate(-14 -34.43)"/><path class="cls-13" d="M90.15,156.62l19.7-1.36a7.35,7.35,0,0,1,4.39-2.52c2.73-.36,10.91,2.79,10.91,3.64s-4.54,7.51-5.76,7.51-9.84-2.73-9.84-2.73l-17.88,4.09Z" transform="translate(-14 -34.43)"/><path class="cls-8" d="M51.67,116.42a193.9,193.9,0,0,1,5.49,28.39c.36,2.94.66,5.83.9,8.63.32,3.56.54,7,.71,10.23.22,4.12.29,9,.28,13.76,0,11-3.72,33.31-3.72,33.31,8.78,2.19,37.06,2.09,54.62-1.58,1.8-14.09-1.37-38.28-2-50.4A228.29,228.29,0,0,0,105,132.5a113.27,113.27,0,0,0-3.1-13.75,8.75,8.75,0,0,0-7.29-6c-1.68-.21-3.62-.42-5.67-.54-.79,0-1.58-.08-2.38-.09A171.15,171.15,0,0,0,67,113.44c-1.23.14-2.48.33-3.69.53A110.76,110.76,0,0,0,51.67,116.42Z" transform="translate(-14 -34.43)"/><path class="cls-8" d="M98.52,115.24c10.38.84,30.81,34.79,27,42.17s-10.29,10.81-21.4-10S98.52,115.24,98.52,115.24Z" transform="translate(-14 -34.43)"/><path class="cls-9" d="M85.85,236.25c-1,12.16-2,24.8-3.11,35.32-1.56-15.18-3.47-26-3.47-26s-1.79-1.47-6.71-9.32,0-22.51,0-22.51C72.4,227.36,85.85,236.25,85.85,236.25Z" transform="translate(-14 -34.43)"/><path class="cls-9" d="M71.25,113.65A18.87,18.87,0,0,0,70.19,117a31.58,31.58,0,0,0-.66,4,46.93,46.93,0,0,0-.25,5.27,51.4,51.4,0,0,0,.42,6.21c.1,1.1.33,2.22.49,3.36s.46,2.31.69,3.5.47,2.4.68,3.64.37,2.5.56,3.77l.48,3.83c.13,1.29.26,2.58.4,3.87.44,5.17.75,10.34,1,15.2s.31,9.39.39,13.27,0,7.13,0,9.4,0,3.56,0,3.56L73.76,183c-.17-3.88-.45-8.4-.72-13.24s-.65-10-1.14-15.15l-.36-3.85c-.14-1.28-.29-2.56-.43-3.82s-.35-2.5-.52-3.72-.44-2.45-.65-3.64-.46-2.38-.63-3.53-.33-2.31-.41-3.43a55.38,55.38,0,0,1-.24-6.3,38.93,38.93,0,0,1,.46-5.31,33,33,0,0,1,.86-4A17.1,17.1,0,0,1,71.25,113.65Z" transform="translate(-14 -34.43)"/></svg>