<?xml version="1.0" encoding="utf-8"?>
<!-- Generator: Adobe Illustrator 24.0.0, SVG Export Plug-In . SVG Version: 6.00 Build 0)  -->
<svg version="1.1" id="Capa_1" xmlns="http://www.w3.org/2000/svg" xmlns:xlink="http://www.w3.org/1999/xlink" x="0px" y="0px"
	 viewBox="0 0 454 441" style="enable-background:new 0 0 454 441;" xml:space="preserve">
<style type="text/css">
	.st0{fill:#EBEBEB;}
	.st1{fill:#FF1713;}
	.st2{fill:#E0E0E0;}
	.st3{fill:#F5F5F5;}
	.st4{fill:none;stroke:#E0E0E0;stroke-width:2;stroke-miterlimit:10;}
	.st5{fill:#FAFAFA;}
	.st6{opacity:0.3;fill:#E0E0E0;stroke:#F0F0F0;stroke-miterlimit:10;enable-background:new    ;}
	.st7{opacity:0.1;enable-background:new    ;}
	.st8{opacity:0.2;enable-background:new    ;}
	.st9{opacity:0.2;fill:#FF1713;enable-background:new    ;}
	.st10{opacity:9.000000e-02;fill:#FF1713;enable-background:new    ;}
	.st11{opacity:0.4;}
	.st12{opacity:0.4;fill:#FFFFFF;enable-background:new    ;}
	.st13{fill:#263238;}
	.st14{fill:none;stroke:#263238;stroke-miterlimit:10;}
	.st15{fill:#B55B52;}
	.st16{fill:none;stroke:#263238;stroke-width:0.7223;stroke-linecap:round;stroke-linejoin:round;stroke-miterlimit:10;}
	.st17{fill:none;stroke:#263238;stroke-width:0.9631;stroke-linecap:round;stroke-linejoin:round;stroke-miterlimit:10;}
	.st18{fill:#A02724;}
	.st19{opacity:0.19;enable-background:new    ;}
	.st20{fill:#ACAF1B;}
	.st21{opacity:0.61;enable-background:new    ;}
	.st22{fill:#FFFFFF;}
</style>
<path class="st0" d="M454,396.6h-22.4v0.3H454V396.6z"/>
<path class="st1" d="M319.9,394.5H285v0.3h34.9V394.5z"/>
<path class="st0" d="M430.4,385.6h-55.8v0.3h55.8V385.6z"/>
<path class="st0" d="M13,387.6H0v0.3h13V387.6z"/>
<path class="st1" d="M69.2,387.6H23.5v0.3h45.7V387.6z"/>
<path class="st0" d="M204.6,392.6h-64.2v0.3h64.2V392.6z"/>
<path class="st0" d="M454,396.6h-22.4v0.3H454V396.6z"/>
<path class="st1" d="M319.9,394.5H285v0.3h34.9V394.5z"/>
<path class="st0" d="M430.4,385.6h-55.8v0.3h55.8V385.6z"/>
<path class="st0" d="M13,387.6H0v0.3h13V387.6z"/>
<path class="st1" d="M69.2,387.6H23.5v0.3h45.7V387.6z"/>
<path class="st0" d="M204.6,392.6h-64.2v0.3h64.2V392.6z"/>
<path class="st2" d="M435.4,379.2c4.4,0,8-3.6,8-8c0-4.4-3.6-8-8-8c-4.4,0-8,3.6-8,8C427.5,375.6,431,379.2,435.4,379.2z"/>
<path class="st0" d="M427.5,379.2c4.4,0,8-3.6,8-8c0-4.4-3.6-8-8-8s-8,3.6-8,8C419.5,375.6,423.1,379.2,427.5,379.2z"/>
<path class="st2" d="M328.5,379.2c4.4,0,8-3.6,8-8c0-4.4-3.6-8-8-8s-8,3.6-8,8C320.5,375.6,324,379.2,328.5,379.2z"/>
<path class="st0" d="M434.7,187.6H300.2v177.3h134.4V187.6z"/>
<path class="st3" d="M443.4,187.6H326.3v177.3h117.1V187.6z"/>
<path class="st4" d="M433.8,196.8h-96.9v159.1h96.9V196.8z"/>
<path class="st4" d="M336.9,247.4h97.8"/>
<path class="st4" d="M336.9,302.8h97.8"/>
<path class="st5" d="M406.1,203.4h-36v4.3h36V203.4z"/>
<path class="st5" d="M406.1,254.4h-36v4.3h36V254.4z"/>
<path class="st5" d="M406.1,311.5h-36v4.3h36V311.5z"/>
<path class="st0" d="M320.5,379.2c4.4,0,8-3.6,8-8c0-4.4-3.6-8-8-8c-4.4,0-8,3.6-8,8C312.5,375.6,316.1,379.2,320.5,379.2z"/>
<path class="st0" d="M298.1,15H53.8v168.8h244.3V15z"/>
<path class="st2" d="M302.8,15h-4.8v168.8h4.8V15z"/>
<path class="st3" d="M293.1,32H60.5v143.5h232.6V32z"/>
<path class="st5" d="M173.2,175.5h-21.1L91.6,31.8h21.1L173.2,175.5z"/>
<path class="st5" d="M220.3,175.5h-38.2L121.6,31.8h38.2L220.3,175.5z"/>
<path class="st5" d="M276.9,175.5h-21.1L195.3,31.8h21L276.9,175.5z"/>
<path class="st6" d="M302.8,6.3H53.8v70.5h249.1V6.3z"/>
<path class="st5" d="M302.1,62.2H53.8v2.2h248.4V62.2z"/>
<path class="st5" d="M302.1,52.1H53.8v2.2h248.4V52.1z"/>
<path class="st5" d="M302.1,42H53.8v2.2h248.4V42z"/>
<path class="st5" d="M302.1,31.8H53.8V34h248.4V31.8z"/>
<path class="st5" d="M302.1,21.7H53.8v2.2h248.4V21.7z"/>
<path class="st2" d="M307.4,3.3H50.8v3h256.6V3.3z"/>
<path class="st2" d="M49.1,9.6c1.9,0,3.5-2.1,3.5-4.8C52.5,2.1,51,0,49.1,0c-1.9,0-3.5,2.1-3.5,4.8C45.6,7.5,47.1,9.6,49.1,9.6z"/>
<path class="st2" d="M307.4,9.6c1.9,0,3.5-2.1,3.5-4.8c0-2.7-1.5-4.8-3.5-4.8c-1.9,0-3.5,2.1-3.5,4.8C304,7.5,305.5,9.6,307.4,9.6z"
	/>
<path class="st1" d="M228.5,441c104.3,0,188.9-6.6,188.9-14.8c0-8.2-84.6-14.8-188.9-14.8c-104.3,0-188.9,6.6-188.9,14.8
	C39.6,434.4,124.2,441,228.5,441z"/>
<path class="st1" d="M408.1,95.9l-25.2,78.9c-1.3,4-6.3,5.1-9.2,2.1l-13.1-13.6c-2.1-2.1-5.4-2.2-7.6-0.3l-109.6,99.7
	c-2,1.8-5.1,1.9-7.2,0.2l-69.6-58c-2.1-1.7-5.1-1.7-7.1,0.1L22.7,326.5l5.2-48.6c0.1-1.4,0.8-2.6,1.8-3.5l129-114.5
	c2-1.8,5.1-1.8,7.1-0.1l69.3,57.8c2.1,1.8,5.2,1.7,7.2-0.2l86.5-78.7c2.3-2.1,2.4-5.7,0.3-7.9l-13-13.5c-3-3.1-1.4-8.2,2.7-9.2
	l82.8-19.2C405.8,88,409.4,91.9,408.1,95.9z"/>
<path class="st7" d="M408.1,96.1l-25.2,78.6c-1.3,4-6.4,5.2-9.3,2.2l-13-13.5c-2.1-2.2-5.5-2.3-7.7-0.3l-109.5,99.6
	c-1.1,1-2.5,1.5-4,1.4c-1.2,0-2.4-0.5-3.3-1.3L166.6,205c-1-0.8-2.1-1.2-3.3-1.3c-1.4-0.1-2.8,0.4-4,1.4L22.7,326.5l5.4-50.7
	l130.6-115.9c1.2-1,2.6-1.5,4.1-1.4c1.1,0.1,2.2,0.5,3.2,1.3l29.5,24.6l39.7,33.1c1.1,0.9,2.4,1.3,3.7,1.3c1.3,0,2.6-0.5,3.6-1.4
	l86.4-78.6c2.3-2.1,2.4-5.7,0.3-8l-12.8-13.3c-3-3.1-1.5-8.3,2.8-9.3l82.5-19.2C405.7,88,409.4,92,408.1,96.1z"/>
<path class="st1" d="M265.2,392H164.1v23h101.1V392z"/>
<path class="st8" d="M176.9,392h-2.7v23h2.7V392z"/>
<path class="st8" d="M191,392h-2.7v23h2.7V392z"/>
<path class="st8" d="M205,414.9h-2.7v-23l2.7,0.4V414.9z"/>
<path class="st8" d="M219.1,392h-2.7v23h2.7V392z"/>
<path class="st8" d="M233.2,392h-2.7v23h2.7V392z"/>
<path class="st8" d="M247.2,392h-2.7v23h2.7V392z"/>
<path class="st9" d="M261.3,392h-2.7v23h2.7V392z"/>
<path class="st10" d="M265.2,392H164.1v4.7h101.1V392z"/>
<path class="st1" d="M281,369H179.9v23H281V369z"/>
<path class="st8" d="M192.7,369H190v23h2.7V369z"/>
<path class="st8" d="M206.7,369H204v23h2.7V369z"/>
<path class="st8" d="M220.8,369h-2.7v23h2.7V369z"/>
<path class="st8" d="M234.9,369h-2.7v23h2.7V369z"/>
<path class="st9" d="M248.9,369h-2.7v23h2.7V369z"/>
<path class="st9" d="M263,369h-2.7v23h2.7V369z"/>
<path class="st9" d="M277,369h-2.7v23h2.7V369z"/>
<path class="st10" d="M281,369H179.9v4.7H281V369z"/>
<path class="st1" d="M266.9,346H165.8v23h101.1V346z"/>
<path class="st8" d="M178.6,346h-2.7v23h2.7V346z"/>
<path class="st8" d="M192.7,369H190v-23l2.7,0V369z"/>
<path class="st8" d="M206.7,346H204v23h2.7V346z"/>
<path class="st8" d="M220.8,346h-2.7v23h2.7V346z"/>
<path class="st8" d="M234.9,369h-2.7v-23l2.7,0V369z"/>
<path class="st9" d="M248.9,346h-2.7v23h2.7V346z"/>
<path class="st9" d="M263,346h-2.7v23h2.7V346z"/>
<path class="st10" d="M266.9,346H165.8v5.7h101.1V346z"/>
<path class="st1" d="M281,323H179.9v23H281V323z"/>
<path class="st8" d="M192.7,323H190v23h2.7V323z"/>
<path class="st8" d="M206.7,323H204v23h2.7V323z"/>
<path class="st8" d="M220.8,323h-2.7v23h2.7V323z"/>
<path class="st8" d="M234.9,323h-2.7v23h2.7V323z"/>
<path class="st9" d="M248.9,323h-2.7v23h2.7V323z"/>
<path class="st9" d="M263,346l-2.7,0v-23l2.7,0.4V346z"/>
<path class="st9" d="M277,323h-2.7v23h2.7V323z"/>
<path class="st10" d="M281,323H179.9v4.7H281V323z"/>
<path class="st1" d="M285.4,300.1H184.3v23h101.1V300.1z"/>
<path class="st8" d="M197.1,300.1h-2.7v23h2.7V300.1z"/>
<path class="st8" d="M211.2,300.1h-2.7v23h2.7V300.1z"/>
<path class="st8" d="M225.2,300.1h-2.7v23h2.7V300.1z"/>
<path class="st8" d="M239.3,300.1h-2.7v23h2.7V300.1z"/>
<path class="st9" d="M253.4,300.1h-2.7v23h2.7V300.1z"/>
<path class="st9" d="M267.4,300.1h-2.7v23h2.7V300.1z"/>
<path class="st9" d="M281.5,300.1h-2.7v23h2.7V300.1z"/>
<path class="st10" d="M285.4,300.1H184.3v4.7h101.1V300.1z"/>
<path class="st1" d="M273.4,277.1H172.3v23h101.1V277.1z"/>
<path class="st8" d="M185.1,277.1h-2.7v23h2.7V277.1z"/>
<path class="st8" d="M199.2,277.1h-2.7v23h2.7V277.1z"/>
<path class="st8" d="M213.2,277.1h-2.7v23h2.7V277.1z"/>
<path class="st8" d="M227.3,277.1h-2.7v23h2.7V277.1z"/>
<path class="st8" d="M241.3,277.1h-2.7v23h2.7V277.1z"/>
<path class="st9" d="M255.4,277.1h-2.7v23h2.7V277.1z"/>
<path class="st9" d="M269.4,277.1h-2.7v23h2.7V277.1z"/>
<path class="st10" d="M273.4,277.1H172.3v4.7h101.1V277.1z"/>
<path class="st1" d="M138.8,392.3H37.8v23h101.1V392.3z"/>
<path class="st9" d="M50.6,392.3h-2.7v23h2.7V392.3z"/>
<path class="st9" d="M64.6,392.3h-2.7v23h2.7V392.3z"/>
<path class="st9" d="M78.7,392.3h-2.7v23h2.7V392.3z"/>
<path class="st9" d="M92.7,392.3H90v23h2.7V392.3z"/>
<path class="st9" d="M106.8,392.3h-2.7v23h2.7V392.3z"/>
<path class="st8" d="M120.8,392.3h-2.7v23h2.7V392.3z"/>
<path class="st8" d="M134.9,392.3h-2.7v23h2.7V392.3z"/>
<path class="st10" d="M138.8,392.3H37.8v4.7h101.1V392.3z"/>
<path class="st1" d="M143.6,369.3H42.5v23h101.1V369.3z"/>
<path class="st9" d="M55.3,369.3h-2.7v23h2.7V369.3z"/>
<path class="st9" d="M69.4,369.3h-2.7v23h2.7V369.3z"/>
<path class="st9" d="M83.4,369.3h-2.7v23h2.7V369.3z"/>
<path class="st9" d="M97.5,369.3h-2.7v23h2.7V369.3z"/>
<path class="st9" d="M111.6,369.3h-2.7v23h2.7V369.3z"/>
<path class="st8" d="M125.6,369.3h-2.7v23h2.7V369.3z"/>
<path class="st8" d="M139.7,369.3h-2.7v23h2.7V369.3z"/>
<path class="st10" d="M143.6,369.3H42.5v4.3h101.1V369.3z"/>
<path class="st1" d="M137.4,346.4H36.3v23h101.1V346.4z"/>
<path class="st9" d="M49.1,346.4h-2.7v23h2.7V346.4z"/>
<path class="st9" d="M63.2,346.4h-2.7v23h2.7V346.4z"/>
<path class="st9" d="M77.2,346.4h-2.7v23h2.7V346.4z"/>
<path class="st9" d="M91.3,346.4h-2.7v23h2.7V346.4z"/>
<path class="st9" d="M105.4,346.4h-2.7v23h2.7V346.4z"/>
<path class="st9" d="M119.4,346.4h-2.7v23h2.7V346.4z"/>
<path class="st8" d="M133.5,346.4h-2.7v23h2.7V346.4z"/>
<path class="st10" d="M137.4,346.4H36.3v4.3h101.1V346.4z"/>
<path class="st1" d="M359.4,334.8h-22.1v81.1h22.1V334.8z"/>
<g class="st11">
	<path class="st12" d="M359.4,356.4v16.5l-22.1,22.2v-17.7L359.4,356.4z"/>
	<path class="st12" d="M359.4,344.3v2.8l-22.1,22.2v-2.8L359.4,344.3z"/>
</g>
<path class="st1" d="M386.7,360.9h-22.1v55h22.1V360.9z"/>
<g class="st11">
	<path class="st12" d="M386.7,377.1v16.3l-22.1,22.2v-17.5L386.7,377.1z"/>
	<path class="st12" d="M386.7,369.5v3.1l-22.1,22.2v-3.1L386.7,369.5z"/>
</g>
<path class="st1" d="M332.2,295.9H310v120h22.1V295.9z"/>
<g class="st11">
	<path class="st12" d="M332.2,318.4v16.4L310,357v-17.6L332.2,318.4z"/>
	<path class="st12" d="M332.2,309.4v3.1L310,334.6v-3.1L332.2,309.4z"/>
</g>
<path class="st13" d="M321.1,307.4c1.8,0,3.2-1.4,3.2-3.2c0-1.8-1.4-3.2-3.2-3.2c-1.7,0-3.2,1.4-3.2,3.2
	C317.9,306,319.3,307.4,321.1,307.4z"/>
<path class="st13" d="M348.3,345.9c1.8,0,3.2-1.4,3.2-3.2c0-1.8-1.4-3.2-3.2-3.2c-1.7,0-3.2,1.4-3.2,3.2
	C345.2,344.5,346.6,345.9,348.3,345.9z"/>
<path class="st13" d="M375.6,372c1.7,0,3.2-1.4,3.2-3.2c0-1.8-1.4-3.2-3.2-3.2c-1.8,0-3.2,1.4-3.2,3.2
	C372.4,370.6,373.9,372,375.6,372z"/>
<path class="st14" d="M375.6,368.9l-28.1,26.2l0.8-52.3l-27.3,16.9v-55.4"/>
<path class="st15" d="M122,158.5c0,0-7.5,11.2-9.3,12.3c-1.8,1.1-25.6-3.4-37.3-9.4l-6.1-7.6l-9.1-3.2L55,160.9l7.2,4.8
	c0,0,4.6,5.3,9.8,3.9c0,0,18.6,12.2,31.9,15.3c13.3,3.1,16.5-0.5,20.4-3.7c3.9-3.2,14.2-18.3,14.2-18.3L122,158.5z"/>
<path class="st15" d="M193.6,111.6c0,0,29.8-9.1,39.9-16.7c0,0,15.3-18.8,17.9-38.8l-3.5-10.4l1.8-11.9l11.3,2.5
	c0,0,6,12.5-1.3,22.3c0,0-1.9,29-14.3,44.2c-12.3,15.1-50.7,25.3-50.7,25.3L193.6,111.6z"/>
<path class="st1" d="M204.3,221.3l-2.4-87.9l19.2-9.1l-12.3-22c0,0-14.9,4.4-27.9,4.4c-17.2,0-34.5,13.1-43.8,16.8
	c-9.3,3.7-19.7,35.5-19.7,35.5l21.6,11.6l4.1-11.9c0,0,5.8,44.1,5.8,63.5L204.3,221.3z"/>
<path class="st13" d="M160.5,98.7c0,0-15,1.6-17.7-10.4c0,0-8.9-3.5-2.6-12.4c0,0-8.2-12.3,2.3-15.9c0,0,3.7-10.8,16.4-13.9
	c8.5-2.1,6.1,2.5,6.1,2.5s17.6-6.8,20.1,0.8c2.5,7.6-11.2,11-11.2,11L160.5,98.7z"/>
<path class="st15" d="M169.9,96.5c0,0,0,0.9,0.3,2.1c0.6,3.5,3,9.2,9,11.1c0,0,0.8,6.3-9,5.2c-9.8-1.1-14.4-2.8-14.4-2.8
	s2.5-10.5-0.3-23.2c0,0-5.5,0.9-8.6-2.2c-3.1-3.2-2-11.2,7.8-6.6c0,0,2.1-11.6-4.7-15.1c0,0,13.4,1.9,24.1-4.6
	c0,0,9.3,11.9,7.9,23.2C180.6,94.9,169.9,96.5,169.9,96.5z"/>
<path class="st16" d="M172.3,82.8c0,0-3.5,2.3-7.5-1"/>
<path class="st13" d="M164.7,71.2c-0.5,0.1-0.8,0.9-0.6,1.8c0.2,0.9,0.8,1.5,1.4,1.3c0.5-0.1,0.8-0.9,0.6-1.8
	C165.8,71.6,165.2,71,164.7,71.2z"/>
<path class="st13" d="M174,67.7c-0.5,0.1-0.8,0.9-0.6,1.8c0.2,0.9,0.8,1.5,1.3,1.3c0.5-0.1,0.8-0.9,0.6-1.8
	C175.2,68.2,174.6,67.6,174,67.7z"/>
<path class="st17" d="M163.5,66.7c0,0-2.4,0.4-3,3.5"/>
<path class="st17" d="M176.2,63.7c0,0-2.1-1.6-4-0.2"/>
<path class="st18" d="M173.7,78.3l-2.2-7.3l6.2,5.2C177.7,76.2,176.6,78.9,173.7,78.3z"/>
<path class="st19" d="M170.1,98.6c-3.4,0.4-5.1-1.3-5.1-1.3c1.8-0.2,4.8-0.8,4.8-0.8S169.9,97.3,170.1,98.6z"/>
<path class="st13" d="M175.4,115.1l-0.1,11.4l-5.6,0.5c0,0-4.3-4.2-4.5-6.4C165,118.4,171.4,112.7,175.4,115.1z"/>
<path class="st13" d="M174.5,125.3c0,0,8.4,30.9,12.4,46.3l-4.6,9.2l-7.7-7.7l-4.2-47.2L174.5,125.3z"/>
<path class="st13" d="M212.8,404.9l-17,2.7c0,0-5.2-64.9-6.6-89.3c-0.2-4.2-0.7-8.7-1.2-13.2v0c-2.6-21.9-8-45.2-8-45.2
	s-1.8,39-6.6,68.9S148,402.3,148,402.3l-16.1-7.4c12.6-36.1,15.5-81.1,16.6-97.9c1.1-16.8-0.1-86-0.1-86l55.6-2.4
	c5.4,26.2,12.3,86.1,13.1,106.8C217.8,335.9,212.8,404.9,212.8,404.9z"/>
<path class="st15" d="M209.8,409.9l0.9,13.6l-10,2.3l-1.1-15.3L209.8,409.9z"/>
<path class="st20" d="M215.5,402.7l-21.5,4.2l1,6.7l20-3.6L215.5,402.7z"/>
<path class="st15" d="M144.6,404.2l-5.9,12.7l-9.5-3.7l6.4-13.2L144.6,404.2z"/>
<path class="st13" d="M129.7,413.3l11.2,4.4c0.5,0.2,0.9,0.5,1.1,1c0.9,1.6,3.2,5.7,6,7.2c3.5,2,5.4,3.3,4.2,5.4
	c-1.3,2-3.2,1.3-5.2,0.8c-1.6-0.4-16.9-6.8-22.6-9.2c-1.1-0.5-1.5-1.8-0.9-2.8l3.9-6.1C127.9,413.3,128.9,413,129.7,413.3z"/>
<path class="st13" d="M200.4,425.3l11.8-2.3c0.5-0.1,1,0,1.5,0.2c1.6,0.9,5.7,3.1,8.9,2.9c4-0.3,6.4-0.1,6.4,2.3
	c0,2.4-2,2.9-3.9,3.5c-1.6,0.5-17.9,3.4-24,4.4c-1.2,0.2-2.2-0.7-2.2-1.9l0-7.2C198.9,426.3,199.6,425.5,200.4,425.3z"/>
<path class="st20" d="M154.1,399.5l-23-4.9l-2,6.7l20.9,6.1L154.1,399.5z"/>
<path class="st21" d="M188.1,305.2c-2.6-21.9-8-45.2-8-45.2l-2.3-29.1C177.8,230.9,190.6,281.2,188.1,305.2z"/>
<path class="st22" d="M156.3,108.6c0,0,6.7,4.7,13.8,6.3l-3.7,10.8c0,0-8.9-4.1-13.5-7.8L156.3,108.6z"/>
<path class="st22" d="M170.1,115l6,9.3c0,0,4.5-6,5.9-12.7l-6.8-4.9C175.3,106.7,172.4,112.9,170.1,115z"/>
</svg>
