<?xml version="1.0" encoding="utf-8"?>
<!-- Generator: Adobe Illustrator 24.0.0, SVG Export Plug-In . SVG Version: 6.00 Build 0)  -->
<svg version="1.1" id="Capa_1" xmlns="http://www.w3.org/2000/svg" xmlns:xlink="http://www.w3.org/1999/xlink" x="0px" y="0px"
	 viewBox="0 0 522 453" style="enable-background:new 0 0 522 453;" xml:space="preserve">
<style type="text/css">
	.st0{fill:#EBEBEB;}
	.st1{clip-path:url(#SVGID_2_);}
	.st2{fill:#FFFFFF;}
	.st3{fill:#455A64;}
	.st4{fill:#FF1713;}
	.st5{fill:#263238;}
	.st6{fill:#F0F7FF;}
	.st7{fill:none;stroke:#FF1713;stroke-miterlimit:10;}
	.st8{fill:none;stroke:#F0F7FF;stroke-width:0.3319;stroke-miterlimit:10;}
	.st9{fill:none;stroke:#263238;stroke-width:2;stroke-linecap:round;stroke-miterlimit:10;}
	.st10{fill:none;stroke:#263238;stroke-width:3;stroke-linecap:round;stroke-miterlimit:10;}
	.st11{fill:none;stroke:#FF1713;stroke-width:2;stroke-miterlimit:10;}
	.st12{fill:none;stroke:#263238;stroke-width:3;stroke-miterlimit:10;}
	.st13{fill:none;stroke:#FFB149;stroke-width:2.3563;stroke-linecap:round;stroke-linejoin:round;stroke-miterlimit:10;}
	.st14{fill:#EDA6A6;}
	.st15{fill:none;stroke:#F74F73;stroke-width:0.7728;stroke-miterlimit:10;}
	.st16{opacity:0.51;fill:none;stroke:#FFFFFF;stroke-width:0.261;stroke-miterlimit:10;enable-background:new    ;}
	.st17{fill:none;stroke:#263238;stroke-width:2;stroke-miterlimit:10;}
	.st18{fill:#E0E0E0;}
</style>
<g>
	<path class="st0" d="M73.8,185.6c39.5,0,71.5-32.5,71.5-72.7c0-40.1-32-72.7-71.5-72.7c-39.5,0-71.5,32.5-71.5,72.7
		C2.3,153,34.3,185.6,73.8,185.6z"/>
	<path class="st0" d="M256.5,332.6c90.3,0,163.5-74.4,163.5-166.2C420,74.5,346.8,0.1,256.5,0.1S93,74.5,93,166.3
		C93,258.2,166.2,332.6,256.5,332.6z"/>
	<g>
		<defs>
			<rect id="SVGID_1_" y="75" width="522" height="378"/>
		</defs>
		<clipPath id="SVGID_2_">
			<use xlink:href="#SVGID_1_"  style="overflow:visible;"/>
		</clipPath>
		<g class="st1">
			<path class="st2" d="M437.7,223.4h-49.2c-2.5,0-4.4-2-4.4-4.4v-27.2c0-2.5,2-4.4,4.4-4.4h49.2c2.5,0,4.4,2,4.4,4.4V219
				C442.2,221.4,440.2,223.4,437.7,223.4z"/>
			<path class="st2" d="M393.7,201.1h-4.2v15.4h4.2V201.1z"/>
			<path class="st2" d="M399.9,202.8h-4.2v13.7h4.2V202.8z"/>
			<path class="st2" d="M406,205.4h-4.2v11.1h4.2V205.4z"/>
			<path class="st2" d="M412.1,202.8H408v13.7h4.2V202.8z"/>
			<path class="st2" d="M418.3,200h-4.2v16.5h4.2V200z"/>
			<path class="st2" d="M424.4,196.5h-4.2v20h4.2V196.5z"/>
			<path class="st2" d="M430.6,201.1h-4.2v15.4h4.2V201.1z"/>
			<path class="st2" d="M436.7,203.8h-4.2v12.7h4.2V203.8z"/>
			<path class="st3" d="M404.2,119.7l2.5,4.6c0,0.1,0.1,0.1,0.1,0.1l4.6,2.5c0.2,0.1,0.2,0.4,0,0.6l-4.6,2.5c-0.1,0-0.1,0.1-0.1,0.1
				l-2.5,4.6c-0.1,0.2-0.4,0.2-0.6,0l-2.5-4.6c0-0.1-0.1-0.1-0.1-0.1l-4.6-2.5c-0.2-0.1-0.2-0.4,0-0.6l4.6-2.5
				c0.1,0,0.1-0.1,0.1-0.1l2.5-4.6C403.7,119.4,404.1,119.4,404.2,119.7z"/>
			<path class="st0" d="M168.2,79.7l2.5,4.6c0,0.1,0.1,0.1,0.1,0.1l4.6,2.5c0.2,0.1,0.2,0.4,0,0.6l-4.6,2.5c-0.1,0-0.1,0.1-0.1,0.1
				l-2.5,4.6c-0.1,0.2-0.4,0.2-0.6,0l-2.5-4.6c0-0.1-0.1-0.1-0.1-0.1l-4.6-2.5c-0.2-0.1-0.2-0.4,0-0.6l4.6-2.5
				c0.1,0,0.1-0.1,0.1-0.1l2.5-4.6C167.8,79.5,168.1,79.5,168.2,79.7z"/>
			<path class="st3" d="M495.1,287.2l2.5,4.6c0,0.1,0.1,0.1,0.1,0.1l4.6,2.5c0.2,0.1,0.2,0.4,0,0.6l-4.6,2.5c-0.1,0-0.1,0.1-0.1,0.1
				l-2.5,4.6c-0.1,0.2-0.4,0.2-0.6,0l-2.5-4.6c0-0.1-0.1-0.1-0.1-0.1l-4.6-2.5c-0.2-0.1-0.2-0.4,0-0.6l4.6-2.5
				c0.1,0,0.1-0.1,0.1-0.1l2.5-4.6C494.7,287,495,287,495.1,287.2z"/>
			<path class="st2" d="M222.2,350.9l2.5,4.6c0,0.1,0.1,0.1,0.1,0.1l4.6,2.5c0.2,0.1,0.2,0.4,0,0.6l-4.6,2.5c-0.1,0-0.1,0.1-0.1,0.1
				l-2.5,4.6c-0.1,0.2-0.4,0.2-0.6,0l-2.5-4.6c0-0.1-0.1-0.1-0.1-0.1l-4.6-2.5c-0.2-0.1-0.2-0.4,0-0.6l4.6-2.5
				c0.1,0,0.1-0.1,0.1-0.1l2.5-4.6C221.7,350.7,222.1,350.7,222.2,350.9z"/>
			<path class="st4" d="M41.5,234.9l2.5,4.6c0,0.1,0.1,0.1,0.1,0.1l4.6,2.5c0.2,0.1,0.2,0.4,0,0.6l-4.6,2.5c-0.1,0-0.1,0.1-0.1,0.1
				l-2.5,4.6c-0.1,0.2-0.4,0.2-0.6,0l-2.5-4.6c0-0.1-0.1-0.1-0.1-0.1l-4.6-2.5c-0.2-0.1-0.2-0.4,0-0.6l4.6-2.5
				c0.1,0,0.1-0.1,0.1-0.1l2.5-4.6C41.1,234.7,41.4,234.7,41.5,234.9z"/>
			<path class="st4" d="M81.6,342.1L94.8,365c1.2,2,4.1,2,5.3,0l13.2-22.9c1.2-2-0.3-4.6-2.6-4.6h-2.3c-1.7,0-3.1-1.4-3.1-3.1v-21
				c0-1.7-1.4-3.1-3.1-3.1h-9.6c-1.7,0-3.1,1.4-3.1,3.1v21c0,1.7-1.4,3.1-3.1,3.1h-2.3C81.9,337.5,80.5,340.1,81.6,342.1z"/>
			<path class="st2" d="M313,124.5v146.1c0,2.9-2.3,5.2-5.2,5.2H70.6c-2.9,0-5.2-2.3-5.2-5.2V124.5c0-2.9,2.3-5.2,5.2-5.2h237.2
				C310.7,119.3,313,121.6,313,124.5z"/>
			<path class="st3" d="M313,124.5v18.1H65.4v-18.1c0-2.9,2.3-5.2,5.2-5.2h237.2C310.7,119.3,313,121.6,313,124.5z"/>
			<path class="st4" d="M259.9,264.2h-16.6c-2.7,0-4.9-2.2-4.9-4.9c0-2.7,2.2-4.9,4.9-4.9h16.6c2.7,0,4.9,2.2,4.9,4.9
				C264.8,262,262.6,264.2,259.9,264.2z"/>
			<path class="st5" d="M294.7,264.2h-16.6c-2.7,0-4.9-2.2-4.9-4.9c0-2.7,2.2-4.9,4.9-4.9h16.6c2.7,0,4.9,2.2,4.9,4.9
				C299.6,262,297.4,264.2,294.7,264.2z"/>
			<path class="st4" d="M88.3,136.6c2.6,0,4.7-2.1,4.7-4.7s-2.1-4.7-4.7-4.7c-2.6,0-4.7,2.1-4.7,4.7S85.7,136.6,88.3,136.6z"/>
			<path class="st0" d="M108.4,136.6c2.6,0,4.7-2.1,4.7-4.7s-2.1-4.7-4.7-4.7c-2.6,0-4.7,2.1-4.7,4.7S105.8,136.6,108.4,136.6z"/>
			<path class="st5" d="M128.6,136.6c2.6,0,4.7-2.1,4.7-4.7s-2.1-4.7-4.7-4.7c-2.6,0-4.7,2.1-4.7,4.7S125.9,136.6,128.6,136.6z"/>
			<path class="st6" d="M220.3,152.1c0.9,0,1.6-0.7,1.6-1.6c0-0.9-0.7-1.6-1.6-1.6c-0.9,0-1.6,0.7-1.6,1.6
				C218.7,151.4,219.4,152.1,220.3,152.1z"/>
			<path class="st6" d="M220.3,164.9c0.9,0,1.6-0.7,1.6-1.6s-0.7-1.6-1.6-1.6c-0.9,0-1.6,0.7-1.6,1.6S219.4,164.9,220.3,164.9z"/>
			<path class="st6" d="M220.3,177.7c0.9,0,1.6-0.7,1.6-1.6c0-0.9-0.7-1.6-1.6-1.6c-0.9,0-1.6,0.7-1.6,1.6
				C218.7,176.9,219.4,177.7,220.3,177.7z"/>
			<path class="st6" d="M220.3,190.5c0.9,0,1.6-0.7,1.6-1.6c0-0.9-0.7-1.6-1.6-1.6c-0.9,0-1.6,0.7-1.6,1.6
				C218.7,189.7,219.4,190.5,220.3,190.5z"/>
			<path class="st6" d="M95.9,216.4c1.4,0,2.6-1.2,2.6-2.6c0-1.4-1.2-2.6-2.6-2.6s-2.6,1.2-2.6,2.6
				C93.3,215.2,94.5,216.4,95.9,216.4z"/>
			<path class="st6" d="M95.9,195.8c1.4,0,2.6-1.2,2.6-2.6s-1.2-2.6-2.6-2.6s-2.6,1.2-2.6,2.6S94.5,195.8,95.9,195.8z"/>
			<path class="st6" d="M95.9,175.3c1.4,0,2.6-1.2,2.6-2.6c0-1.4-1.2-2.6-2.6-2.6s-2.6,1.2-2.6,2.6
				C93.3,174.1,94.5,175.3,95.9,175.3z"/>
			<path class="st6" d="M95.9,154.7c1.4,0,2.6-1.2,2.6-2.6c0-1.4-1.2-2.6-2.6-2.6s-2.6,1.2-2.6,2.6
				C93.3,153.6,94.5,154.7,95.9,154.7z"/>
			<path class="st7" d="M87.6,245.9l57.2-48.4l27.4-2.1l42.6,44.3l45.6-27.4l32.7-27.5"/>
			<path class="st4" d="M291.1,182.6l4.5-1.2c0.6-0.2,1.1,0.4,1,1l-1.2,4.5c-0.2,0.6-0.9,0.8-1.3,0.4l-3.3-3.3
				C290.3,183.5,290.5,182.7,291.1,182.6z"/>
			<path class="st4" d="M87.6,248.5c1.4,0,2.6-1.2,2.6-2.6c0-1.4-1.2-2.6-2.6-2.6c-1.4,0-2.6,1.2-2.6,2.6
				C85,247.4,86.2,248.5,87.6,248.5z"/>
			<path class="st4" d="M144.9,200.1c1.4,0,2.6-1.2,2.6-2.6c0-1.4-1.2-2.6-2.6-2.6s-2.6,1.2-2.6,2.6
				C142.2,199,143.4,200.1,144.9,200.1z"/>
			<path class="st4" d="M172.3,198c1.4,0,2.6-1.2,2.6-2.6c0-1.4-1.2-2.6-2.6-2.6s-2.6,1.2-2.6,2.6C169.7,196.8,170.8,198,172.3,198z
				"/>
			<path class="st4" d="M214.9,242.3c1.4,0,2.6-1.2,2.6-2.6s-1.2-2.6-2.6-2.6s-2.6,1.2-2.6,2.6S213.4,242.3,214.9,242.3z"/>
			<path class="st4" d="M260.5,214.9c1.4,0,2.6-1.2,2.6-2.6c0-1.4-1.2-2.6-2.6-2.6s-2.6,1.2-2.6,2.6
				C257.9,213.8,259.1,214.9,260.5,214.9z"/>
			<path class="st8" d="M79.1,148.9v113"/>
			<path class="st8" d="M110.6,232.1v29.7"/>
			<path class="st8" d="M110.6,148.9v71.9"/>
			<path class="st8" d="M142,202.4v59.5"/>
			<path class="st8" d="M142,148.9v44.4"/>
			<path class="st8" d="M173.5,201.4v60.4"/>
			<path class="st8" d="M173.5,148.9v41.4"/>
			<path class="st8" d="M204.9,237.1v24.8"/>
			<path class="st8" d="M204.9,148.9v70.8"/>
			<path class="st8" d="M236.4,230v31.9"/>
			<path class="st8" d="M236.4,148.9v73.3"/>
			<path class="st8" d="M267.8,210.9v51"/>
			<path class="st8" d="M267.8,148.9V201"/>
			<path class="st8" d="M299.3,148.9v113"/>
			<path class="st3" d="M14.1,225.2c-1.6,0-2.9-1.3-2.9-2.9V200c0-1.6,1.3-2.9,2.9-2.9c1.6,0,2.9,1.3,2.9,2.9v22.3
				C17,223.9,15.7,225.2,14.1,225.2z"/>
			<path class="st3" d="M0,211.1c0-1.6,1.3-2.9,2.9-2.9h22.3c1.6,0,2.9,1.3,2.9,2.9c0,1.6-1.3,2.9-2.9,2.9H2.9
				C1.3,214,0,212.7,0,211.1z"/>
			<path class="st0" d="M350,453c67.5,0,122.2-4,122.2-8.9c0-4.9-54.7-8.9-122.2-8.9s-122.2,4-122.2,8.9
				C227.7,449,282.5,453,350,453z"/>
			<path class="st9" d="M191.6,262l24.3,59.1"/>
			<path class="st10" d="M282,320.2h-65.8"/>
			<path class="st11" d="M172.4,260.3l-4.6,5.6c-3.6,4.4-6.5,9.3-8.6,14.6l-11.5,29.5c-0.3,0.8-0.5,1.7-0.5,2.6c0,4,3.3,7.2,7.4,7.2
				h41.3"/>
			<path class="st12" d="M160.3,203.5l26.2,104.2"/>
			<path class="st13" d="M272.3,322.4l35.8,121"/>
			<path class="st13" d="M137.9,322.4l-35.8,121"/>
			<path class="st10" d="M123.2,322.4H287"/>
			<path class="st10" d="M133,324.9h8.3"/>
			<path class="st10" d="M269.2,324.9h8.3"/>
			<path class="st3" d="M386.6,344.3l-63,5.4c-2.5,0-5,1-6.8,2.8c-3.1,3.1-3.7,7.9-1.5,11.6l37.3,62.9h13.9l-11.9-44.9l40.4-2.1
				L386.6,344.3z"/>
			<path class="st5" d="M333.9,443.4c-0.4,0-0.7-0.4-0.5-0.8c1.6-3.5,4.7-6,8.5-6.7l13.6-2.8l10,0.5c0.9,0,1.7,0.7,1.8,1.6l1,6.3
				c0.2,1-0.6,1.9-1.6,1.9H333.9z"/>
			<path class="st14" d="M353.4,427.1c-0.1-0.1,2.3,6.6,2.3,6.6c3.5,0.9,6.4,0.9,10.5,0.2l-1.3-6.8L353.4,427.1z"/>
			<path class="st15" d="M344.4,435.1c0,0,3.2-1.7,5.2,1.6"/>
			<path class="st15" d="M350,434.1c0,0,3.2-1.7,5.2,1.6"/>
			<path class="st3" d="M334.3,361.3l50.6-14.6l42.3,19.9l-3.4,8.6c-6.3,11.2-19,18-31.7,19.1c-3.1,0.3-6.3,0.1-9.4-0.3l-26.6-4.2
				c-11.2-1.8-22.7,1.4-31.4,8.8l-33.4,28.5l-9.5-5.6l15.7-30.2C305.3,376.7,318.5,365.8,334.3,361.3z"/>
			<path class="st4" d="M397.6,284.1l-8.6-5l-15.3,10.8l-24.6,40l14.4,16.3l13.5-16.8l8,17.3l42.3,19.9l2.3-11.2
				c2.7-13.3,1.3-27.1-4-39.6C419.9,302.5,410.1,291.4,397.6,284.1z"/>
			<path class="st4" d="M290.8,309.7l59.8,17.8l12.8,18.7l-16.6,1.5l-10.6-5.2l-45-24.4L290.8,309.7z"/>
			<path class="st14" d="M290.8,309.7l-19.8-0.3c-2.7,0-5.4,0.8-7.6,2.4l-0.7,0.5c-0.5,0.3-0.3,1,0.3,1.1l15.8,2.9
				c1.3,0.2,2.7,0.3,4,0.1c2.3-0.3,4.6-1.1,6.8-0.1l1.6,0.7L290.8,309.7z"/>
			<path class="st14" d="M291.2,299.5l-19.8,0.5c-2.3,0.1-4.6,0.8-6.5,2.2l-1.3,0.9c-0.4,0.3-0.3,1,0.3,1.1l15.2,2.8
				c1.8,0.3,3.6,0.2,5.3-0.3c1.6-0.5,2.9-1.5,4.5-1.3l4.4,0.6L291.2,299.5z"/>
			<path class="st5" d="M254.9,443.4c-0.6,0-0.9-0.6-0.7-1.1c1.7-3.3,5.1-5.7,8.7-6.4l11.3-2c0.9-0.2,1.7-0.2,2.6-0.2l10.4-0.5
				c0.6,0,1.1,0.4,1.2,1l1,7.4c0.1,1-0.6,1.9-1.6,1.9L254.9,443.4L254.9,443.4z"/>
			<path class="st14" d="M282.6,421.9c-0.1-0.1-5.9,11.8-5.9,11.8c3.8,1,7.6,1,11.4,0l3.4-6.6L282.6,421.9z"/>
			<path class="st4" d="M371.9,292.9l-28.1,19l-17.1-3.1l-35.5-9.3l2.4,7.4l39.6,16.7l16.3,5.4L371.9,292.9z"/>
			<path class="st15" d="M266.6,435.1c0,0,3.2-1.7,5.2,1.6"/>
			<path class="st15" d="M272.3,434.1c0,0,3.2-1.7,5.2,1.6"/>
			<path class="st14" d="M343.8,257.6l4.5,21.1c0.2,1.1,1.4,1.8,2.5,1.5l1.4-0.4l3.8,8.5l11.9-6.6l5.8,8.2
				c7.1-1.8,12.1-5.4,15.3-10.8l-29.2-29.4L343.8,257.6z"/>
			<path class="st5" d="M347.9,262.4h-4.2c-1.8,0-3.6-0.8-4.7-2.3l-3.5-4.3c-0.7-0.9-1.1-2-1.1-3.1c0-2.7,2.1-4.9,4.8-5l7.8-0.3
				c5.9-0.2,11.7,0.2,17.5,1.2l3.4,0.6c1.7,0.3,3.1,1.4,3.8,3l6.7,16l-13.4-7.3L347.9,262.4z"/>
			<path class="st5" d="M372.8,269.6c-0.4-0.8-0.6-1.7-0.5-2.6l0.8-11.3l-14.2,3l4.9,9.8c1.5,3.1,1.2,6.7-0.7,9.4l-1.8-0.3
				c-1-0.2-1.9-0.2-2.9-0.1c-1.7,0.1-3.4,0.7-4.9,1.6l-1,0.7c-0.2,0.1-0.3,0.3-0.2,0.5l2.2,6.9c0.4,1.3,1.6,2.2,3,2.2
				c0.5,0,0.9-0.1,1.4-0.3l4.7-2.3c2.8-1.3,5.3-3.2,7.5-5.4C373.9,278.2,374.7,273.5,372.8,269.6z"/>
			<path class="st5" d="M386.2,347.8l41.1,18.8l0.9-3.7c0.1-0.4-0.1-0.9-0.5-1l-44.3-18.7l0.8,2.4
				C384.5,346.6,385.2,347.4,386.2,347.8z"/>
			<path class="st16" d="M286.8,417.3c0,0,12.9-30.2,29.8-43c16.9-12.8,66.8-23.8,66.8-23.8"/>
			<path class="st5" d="M377,329.4c0.2-0.3,12-14.7,12-14.7l-9.1,21.1L377,329.4z"/>
			<path class="st17" d="M391.4,394.5L374,443.4"/>
			<path class="st17" d="M413.4,386.9l28.5,56.5"/>
			<path class="st17" d="M380.5,393.4l1.2,0.3c3.8,0.8,7.6,1,11.5,0.7c0.5,0,1.1-0.1,1.6-0.2c15.7-1.8,28.6-13.1,33.1-28.3
				l15.4-51.7"/>
			<path class="st18" d="M56.2,453H33.6c-0.8,0-1.5-0.6-1.7-1.4l-6.2-38.2c-0.2-1,0.6-2,1.7-2h34.9c1,0,1.8,0.9,1.7,2l-6.2,38.2
				C57.7,452.4,57,453,56.2,453z"/>
			<path class="st18" d="M47.1,417.7l2.2-12c9-9.6,14.2-24,15.7-40.1c0.2-1.8,0.3-3.6,0.3-5.4l-7,2.8c0,0,3.7-3.3,7-6.2
				c-0.3-12.9-3.9-24.7-9.7-33.8c-9.1,9.6-15.6,23.8-17.1,40.1c-0.1,0.9-0.1,1.7-0.2,2.6l6.7,10.7c-0.2-0.1-4.1-3.2-6.9-5.4
				c0.1,13.1,3.7,25.1,9.6,34.4l-1.1,12.2L47.1,417.7z"/>
			<path class="st0" d="M44.5,419.5l-3-11.8c4.4-12.4,3.6-27.8-1.5-43.1c-0.6-1.7-1.2-3.4-1.9-5l-5.3,5.3c0,0,2-4.5,3.9-8.5
				c-5.5-11.7-13.5-21.1-22.5-27c-4.5,12.4-4.7,28.1,0.5,43.6c0.3,0.8,0.6,1.6,0.9,2.5l10.5,7.1c-0.2-0.1-5-1.3-8.5-2.2
				c5.4,12,13.5,21.5,22.6,27.6l3.9,11.7L44.5,419.5z"/>
			<path class="st4" d="M299.4,101.6h-40c-2.7,0-5-2.2-5-5V80c0-2.7,2.2-5,5-5h40c2.7,0,5,2.2,5,5v16.7
				C304.4,99.4,302.1,101.6,299.4,101.6z"/>
			<path class="st2" d="M264.7,91.7l0.9-2c0.8,0.5,1.8,0.7,2.7,0.7c0.8,0,1.1-0.2,1.1-0.4c0-1-4.5-0.2-4.5-3.2
				c0-1.5,1.3-2.7,3.8-2.7c1.1,0,2.2,0.2,3.1,0.7l-0.8,2c-0.8-0.4-1.6-0.6-2.3-0.6c-0.8,0-1.1,0.2-1.1,0.5c0,1,4.5,0.2,4.5,3.2
				c0,1.5-1.3,2.7-3.8,2.7C266.8,92.6,265.5,92.2,264.7,91.7z"/>
			<path class="st2" d="M279.6,90.3v2.1h-6.8v-8.1h6.6v2.1h-3.9v1h3.4v2h-3.4v1.1L279.6,90.3L279.6,90.3z"/>
			<path class="st2" d="M280.6,84.3h2.7v6h3.7v2.1h-6.4V84.3z"/>
			<path class="st2" d="M287.8,84.3h2.7v6h3.7v2.1h-6.4L287.8,84.3L287.8,84.3z"/>
		</g>
	</g>
	<path class="st4" d="M447.1,36.1l-14.5-25.5c-1.3-2.3-4.5-2.3-5.8,0l-14.5,25.5c-1.3,2.3,0.3,5.1,2.9,5.1h2.5
		c1.8,0,3.3,1.5,3.3,3.4V68c0,1.9,1.5,3.4,3.3,3.4H435c1.8,0,3.3-1.5,3.3-3.4V44.6c0-1.9,1.5-3.4,3.3-3.4h2.5
		C446.8,41.2,448.4,38.4,447.1,36.1z"/>
</g>
</svg>
